<svg width="24" height="24" viewBox="0 0 24 24" fill="none" xmlns="http://www.w3.org/2000/svg">
<g clip-path="url(#clip0_95_1096)">
<path d="M18.0002 1.60789C19.8102 2.65293 21.3158 4.15255 22.3681 5.9583C23.4203 7.76406 23.9827 9.81332 23.9996 11.9032C24.0165 13.9931 23.4873 16.0512 22.4643 17.8737C21.4413 19.6962 19.9601 21.22 18.1673 22.2941C16.3745 23.3683 14.3322 23.9556 12.2427 23.9978C10.1531 24.0401 8.08876 23.536 6.25394 22.5352C4.41913 21.5345 2.87748 20.0719 1.78162 18.2923C0.685763 16.5127 0.0736921 14.4777 0.00600021 12.3888L0 12L0.00600021 11.6112C0.0732047 9.53878 0.676266 7.51912 1.75639 5.74913C2.83651 3.97915 4.35684 2.51924 6.16915 1.51175C7.98145 0.504253 10.0239 -0.0164531 12.0974 0.000396297C14.1708 0.0172457 16.2045 0.571075 18.0002 1.60789ZM12.0001 4.79993C11.7062 4.79997 11.4225 4.90788 11.2029 5.10319C10.9832 5.29851 10.8429 5.56764 10.8085 5.85954L10.8001 5.99994V12L10.8109 12.1572C10.8383 12.3654 10.9198 12.5628 11.0473 12.7296L11.1517 12.8496L14.7518 16.4497L14.8646 16.5481C15.075 16.7114 15.3338 16.8 15.6002 16.8C15.8666 16.8 16.1254 16.7114 16.3358 16.5481L16.4486 16.4485L16.5482 16.3357C16.7115 16.1252 16.8001 15.8664 16.8001 15.6001C16.8001 15.3337 16.7115 15.0749 16.5482 14.8645L16.4486 14.7517L13.2002 11.502V5.99994L13.1918 5.85954C13.1574 5.56764 13.017 5.29851 12.7974 5.10319C12.5778 4.90788 12.2941 4.79997 12.0001 4.79993Z" fill="#7FBD63"/>
</g>
<defs>
<clipPath id="clip0_95_1096">
<rect width="24" height="24" fill="white"/>
</clipPath>
</defs>
</svg>
