<svg width="30" height="24" viewBox="0 0 30 24" fill="none" xmlns="http://www.w3.org/2000/svg">
<g clip-path="url(#clip0_95_1098)">
<path d="M27 0H3.00001C1.35 0 0.015 1.35 0.015 3.00001L0 21.0001C0 22.65 1.35 24 3.00001 24H27C28.6501 24 30.0001 22.65 30.0001 21.0001V3.00001C30.0001 1.35 28.6501 0 27 0ZM26.4001 6.37501L15.795 13.005C15.315 13.305 14.685 13.305 14.2051 13.005L3.6 6.37501C3.4496 6.29057 3.31789 6.1765 3.21283 6.03969C3.10779 5.90288 3.0316 5.74618 2.98887 5.57906C2.94614 5.41195 2.93776 5.23791 2.96423 5.06747C2.99072 4.89702 3.05151 4.73372 3.14293 4.58746C3.23435 4.44119 3.35449 4.31499 3.4961 4.2165C3.6377 4.11801 3.79782 4.04928 3.96675 4.01445C4.13569 3.97963 4.30994 3.97945 4.47894 4.01393C4.64795 4.0484 4.8082 4.1168 4.95001 4.21501L15 10.5L25.0501 4.21501C25.1919 4.1168 25.3521 4.0484 25.5211 4.01393C25.6901 3.97945 25.8643 3.97963 26.0333 4.01445C26.2023 4.04928 26.3624 4.11801 26.504 4.2165C26.6455 4.31499 26.7657 4.44119 26.8571 4.58746C26.9485 4.73372 27.0093 4.89702 27.0358 5.06747C27.0623 5.23791 27.0539 5.41195 27.0112 5.57906C26.9685 5.74618 26.8922 5.90288 26.7872 6.03969C26.6822 6.1765 26.5504 6.29057 26.4001 6.37501Z" fill="#7FBD63"/>
</g>
<defs>
<clipPath id="clip0_95_1098">
<rect width="30" height="24" fill="white"/>
</clipPath>
</defs>
</svg>
