<svg fill="none" xmlns="http://www.w3.org/2000/svg"><path d="M50 100c27.614 0 50-22.385 50-50 0-27.614-22.386-50-50-50S0 22.386 0 50c0 27.615 22.386 50 50 50z" fill="#E3EDFE"/><path d="M51.346 90.525c-.144-.169-4.216-.096-9.42.097-2-.17-4.217-.217-6.554-.145-2.7.096-5.229.337-7.47.723-4.94.217-8.674.41-8.674.41s-.554 3.782.241 4.481c1.47 1.904 8.096 3.157 15.95 2.867 8.675-.337 15.662-2.385 15.951-4.65h.025s.337-3.277-.049-3.783z" fill="url(#paint0_linear)"/><path d="M51.516 90.935c.024 2.313-7.132 4.458-16.023 4.795-8.988.313-16.337-1.325-16.337-3.687 0-2.36 7.325-4.505 16.313-4.794 8.866-.29 16.023 1.373 16.047 3.686z" fill="url(#paint1_linear)"/><path d="M48.721 87.345c-.12-.145-3.566-.097-7.951.048a50.659 50.659 0 00-5.518-.145c-2.265.073-4.41.29-6.289.603l-7.3.337s-.482 3.253.192 3.855c1.23 1.639 6.795 2.723 13.421 2.482 7.3-.265 13.204-2.024 13.445-3.976h.024s.337-2.77-.024-3.204z" fill="url(#paint2_linear)"/><path d="M48.961 87.706c.024 2-6.023 3.831-13.565 4.072-7.59.265-13.782-1.18-13.782-3.204s6.168-3.855 13.758-4.072c7.517-.241 13.565 1.204 13.59 3.204z" fill="url(#paint3_linear)"/><path d="M43.323 86.622c0 .77-3.494 1.518-7.855 1.662-1.35.049-2.626.024-3.735-.048-2.481-.168-4.192-.578-4.192-1.108 0-.193.217-.313.578-.506 2.916-2.217 2.747-13.903 2.747-13.903l9.084-.217s-.048 12.578 3.204 13.855l-.024-.024c.12.12.193.192.193.289z" fill="url(#paint4_linear)"/><path opacity=".3" d="M31.71 88.236c-2.482-.168-4.193-.578-4.193-1.108 0-.193.217-.313.578-.506 2.916-2.217 2.747-13.903 2.747-13.903l1.904-.048c1.277.12 2.53.65 2.746 1.446.025.024.82 13.372-3.782 14.12z" fill="url(#paint5_linear)"/><path d="M48.045 60.889l1.109-.024c4.722-.096 8.915-3.132 10.433-7.614l5.638-16.625c.337-.964.169-2.024-.434-2.868-.578-.819-1.542-1.277-2.602-1.277h-.072l-13.204.554c-1.06.049-1.904.94-1.855 2 .048 1.06.963 1.88 2.024 1.832l12.191-.53-5.325 15.685c-1.011 2.94-3.734 4.94-6.818 4.988l-1.109.024c-1.084.024-1.951.891-1.927 1.952 0 1.084.867 1.927 1.951 1.903z" fill="url(#paint6_linear)"/><path d="M55.684 27.927s0 .482-.024 1.326v.313c-.193 6.795-1.59 32.961-12.554 41.66-.795.626-1.518 1.18-2.41 1.614a13.21 13.21 0 01-4.65 1.229h-.626c-18.095-.097-20.529-36.142-20.842-44.407 0-.747-.072-1.277-.072-1.518a.418.418 0 00-.024-.168l20.528-.049h20.674z" fill="url(#paint7_linear)"/><path opacity=".4" d="M40.697 72.84a13.207 13.207 0 01-4.65 1.228h-.627c-18.095-.096-20.529-36.142-20.842-44.406-.144-.024-.313-.072-.458-.096a.856.856 0 00-.24-.049c-.097-.987-.17-1.566-.17-1.566l.7.193 6.095 1.735s0 .265.049.723c.289 4.843 2.36 32.6 8.987 34.889 6.24 2.12 5.566 7.397 11.156 7.349z" fill="url(#paint8_linear)"/><path d="M20.433 58.89l-1.156.023c-3.18.048-6.072-1.903-7.132-4.891L6.362 38.023l11.42.361s3.013-1.349.242-3.903l-12.578-.434h-.072c-1.132 0-2.144.507-2.747 1.35-.65.867-.795 1.952-.433 2.963l6.12 17.011c1.638 4.554 6.072 7.542 10.963 7.445l1.156-.024c1.109-.024 2-.915 2-2 0-1.084-.891-1.927-2-1.903z" fill="url(#paint9_linear)"/><path d="M59.033 26.626c.024 1.976-2.217 2.627-3.06 2.868-.097.024-.217.048-.313.096-1.157.313-2.723.578-4.627.82-4.192.505-9.782.818-15.758.818-5.397.024-10.553-.192-14.673-.602-.458-.048-.916-.096-1.35-.145-1.951-.216-3.541-.481-4.746-.795-.145-.024-.265-.072-.386-.096-.072-.024-.144-.048-.217-.048-.988-.29-3.036-.988-3.036-2.868 0-2.023 2.338-2.674 3.23-2.915 1.228-.337 2.963-.65 5.131-.891 4.313-.506 10-.771 16-.771 5.95.024 11.54.289 15.733.819 2.096.265 3.759.554 4.964.891.843.217 3.084.844 3.108 2.82z" fill="url(#paint10_linear)"/><path d="M57.106 25.662c0 .916-9.71 1.663-21.854 1.663-12.288 0-22.384-.747-22.384-1.687 0-.94 10.072-1.687 22.36-1.663 12.144.025 21.878.772 21.878 1.687z" fill="url(#paint11_linear)"/><path opacity=".3" d="M57.106 25.662c0 .916-9.71 1.663-21.854 1.663-12.288 0-22.384-.747-22.384-1.687 0-.94 10.072-1.687 22.36-1.663 12.144.025 21.878.772 21.878 1.687z" fill="url(#paint12_linear)"/><path d="M44.432 21.398l1.398.988s.024-3.084 3.47-4.048c3.445-.964 5.806-2.24 5.18-4.915l-3.59-1.301s-.579 3.517-3.012 4.144c-4.048 1.036-3.446 5.132-3.446 5.132z" fill="url(#paint13_linear)"/><path d="M49.564 23.76c-.072-1.567.049-3.519 1.301-4.362 1.205-.843 2.555.024 4.482-.41 1.277-.289 2.964-1.132 4.675-3.758.987 1.975 1.951 3.951 2.94 5.903-3.013 2.216-4.964 2.337-6.217 1.927-1.494-.482-2.265-1.758-3.47-1.566-1.132.193-1.88 1.542-2.313 2.699-.506-.12-.964-.265-1.398-.434z" fill="url(#paint14_linear)"/><path d="M57.443 15.278c-.385-.868-.747-2-.24-2.747.505-.747 1.445-.554 2.457-1.205.65-.433 1.422-1.3 1.807-3.156a301.71 301.71 0 012.964 2.698c-1.205 1.928-2.29 2.41-3.084 2.458-.964.048-1.663-.506-2.314-.12-.602.361-.722 1.277-.722 2.024-.29.024-.579.048-.868.048z" fill="#ACD5FF"/><path d="M63.202 18.386c-.723-.988.457-3.325 1.879-4.747 2.626-2.65 5.3-1.421 7.71-3.71.65-.627 1.374-1.59 1.831-3.157.241-.819 1.302-1.06 1.88-.41 1.205 1.374 2.385 2.772 3.59 4.145-.65 3.976-2.024 5.35-3.156 5.855-2.482 1.109-4.94-1.35-8.434-.337-1.903.554-3.204 1.88-4 2.867-.505-.024-1.035-.12-1.3-.506z" fill="url(#paint15_linear)"/><path d="M56.262 8.748c.771-.53 1.976-.65 2.337-.12.314.482-.168 1.373-.674 1.855-.795.723-2.169.964-2.578.434-.362-.458.12-1.615.915-2.169z" fill="url(#paint16_linear)"/><path d="M72.358 19.157c.843.41 1.542 1.398 1.253 1.976-.265.506-1.277.53-1.952.313-1.012-.337-1.903-1.422-1.662-2.024.265-.554 1.493-.675 2.361-.265z" fill="url(#paint17_linear)"/><path d="M39.613 21.181c0-1.108.699-2.41 1.422-2.41.674 0 1.204 1.085 1.325 1.928.169 1.277-.506 2.82-1.277 2.867-.723.049-1.47-1.229-1.47-2.385zm5.879-8.987c.772-.53 1.976-.65 2.338-.12.313.481-.169 1.373-.675 1.855-.795.723-2.169.963-2.578.433-.386-.457.12-1.614.916-2.168z" fill="#ACD5FF"/><path d="M34.842 73.804l-2.072-7.446-8.94.362L35.879 48.6l10.313 7.398-11.35 17.806z" fill="url(#paint18_linear)"/><path d="M49.636 72.43l1.904-7.324 7.734-.313-10.602-16.65-10.264 7.397 11.228 16.89z" fill="url(#paint19_linear)"/><path d="M52.696 46.794c0 6.698-5.084 12.264-11.566 12.408-6.746.145-12.384-5.566-12.384-12.746 0-7.18 5.662-12.746 12.384-12.385 6.482.314 11.566 6 11.566 12.723z" fill="url(#paint20_linear)"/><path d="M53.587 46.793c0 6.699-5.084 12.265-11.566 12.41-6.746.144-12.384-5.567-12.384-12.747S35.299 33.71 42.02 34.071c6.482.314 11.566 6 11.566 12.722z" fill="url(#paint21_linear)"/><path d="M51.756 46.77c0 5.638-4.289 10.288-9.734 10.384-5.614.097-10.313-4.698-10.313-10.674 0-5.975 4.699-10.625 10.313-10.384 5.445.24 9.734 5.011 9.734 10.673z" fill="url(#paint22_linear)"/><path d="M51.033 46.746c0 5.228-3.976 9.517-9.011 9.59-5.18.072-9.494-4.338-9.494-9.855 0-5.518 4.313-9.807 9.494-9.59 5.035.217 9.011 4.626 9.011 9.855z" fill="url(#paint23_linear)"/><path d="M81.369 95.826v-.072c-.41-1.662-2.12-2.506-2.12-2.506l-.82.073c-.482 1.47-.77 2.168-.698 2.578v.024c.674.048 2.072.072 3.638-.097z" fill="#568FE2"/><path d="M77.731 95.899c.048.144.145.24.265.265.964.192 2.506.048 3.132-.049a.286.286 0 00.241-.289c-1.566.169-2.963.145-3.638.073z" fill="#568FE2"/><path d="M79.924 91.947l-.362 1.735a.31.31 0 01-.24.24 2.123 2.123 0 01-.555 0c-.193-.023-.313-.216-.29-.409l.242-1.542h1.205v-.024z" fill="#fff" stroke="#426A7C" stroke-width=".25" stroke-miterlimit="10"/><path d="M70.743 95.898c.868-.024 1.326-.12 1.567-.216v.265a.165.165 0 01-.169.168l-4.819-.024c-.145 0-.24-.168-.169-.313.627.024 2.241.145 3.59.12z" fill="#568FE2"/><path d="M67.153 95.754c0-.024 0-.024.024-.048.434-.602 1.518-1.783 3.663-2.289l1.036-.024s.458.795.458 2.265c-.241.096-.7.193-1.567.217-1.373.048-2.987-.073-3.614-.12z" fill="#568FE2"/><path d="M72.045 91.85c0 .073-.145 1.23-.217 1.687-.024.097-.097.193-.193.193a2.25 2.25 0 01-.699 0c-.144-.024-.24-.144-.24-.313v-1.831l1.349.265z" fill="#fff" stroke="#426A7C" stroke-width=".25" stroke-miterlimit="10"/><path d="M79.224 69.202s1.638 14.625.723 23.757c0 0-1.085 0-1.639-.193 0 0-1.71-14.288-2.265-18.384-.024-.144-.24-.169-.265 0-.674 3.446-3.349 16.939-3.686 18.216 0 0-.916.361-1.639 0 0 0 1.47-19.541 2.554-23.01l6.217-.386z" fill="url(#paint24_linear)"/><path d="M56.793 54.263l1.156.627c1.374.843 2.627 1.277 3.735 1.445 3.47.53 5.445-1.855 7.132-3.18 1.253-.988 2.458-1.084 3.277-.988 5.036-.795 10.433.048 10.433.048s10.77 11.686-1.928 16.168v-.916s4.723-4 1.109-9.47c-.916 1.832-2.482 11.205-2.482 11.205-2 1.084-6.216.361-6.216.361-1.085-3.47-2.555-11.324-2.555-11.324l-.024-.29c-3.421 2.844-7.011 1.567-9.228.53-1.47-.698-2.385-1.517-2.385-1.517-2.578-1.542-2.024-2.699-2.024-2.699z" fill="#ACD5FF"/><path d="M53.395 55.901a.887.887 0 01.506-.554l2.337-.94s.025-.289-.505-.505c-.53-.193-.41-.796-.41-.796s.723.338 1.783.844c.602.289.94.819 1.132 1.229l-.602.795c-1.446.433-2.916.506-4.385.337l.144-.41zm27.131 11.662s-1.639-1.084-2.386-.722c-.723.361-.723.915-.723.915s.362.723.916.554c.554-.192 1.831.193 2.385 0-.024 0 .17-.747-.192-.747zm-2.819-20.336l.699 4.674s-1.928.892-3.277-.048l.289-3.3 2.289-1.326z" fill="#fff" stroke="#426A7C" stroke-width=".25" stroke-miterlimit="10"/><path d="M74.719 44.191c-.025.048-.434 2.41-.7 3.855a1.04 1.04 0 00.94 1.205l.555.024c1.036.073 1.927-.674 2.096-1.686l.41-2.65s-2.771-1.712-3.301-.748z" fill="#fff" stroke="#426A7C" stroke-width=".25" stroke-miterlimit="10"/><path d="M78.647 44.939c.216-.266.41-.7-.049-1.157-.457-.458-.987-.337-1.325-.193-.144.072-.337.049-.433-.096-.049-.048-.121-.096-.217-.072-.193.024-.362-.097-.386-.29-.048-.337-.217-.722-.795-.843-1.084-.217-1.614.868-1.59 1.615.024.746 1.204.915 1.855.795.482-.097.916.337 1.108.578.073.096.097.193.073.313l-.169.723c.12.217.24.458.41.65.12.145.24.217.385.241.193-.361.771-.433 1.012-.433a.387.387 0 00.265-.12c.193-.218.506-.724-.096-1.23-.169-.096-.169-.337-.048-.481z" fill="url(#paint25_linear)"/><path d="M77.297 48.023s.025-1.326.555-1.446c.53-.12 1.108.265.65 1.06-.578.964-1.205.386-1.205.386z" fill="#fff" stroke="#426A7C" stroke-width=".25" stroke-miterlimit="10"/><defs><linearGradient id="paint0_linear" x1="28.63" y1="102.62" x2="41.724" y2="83.821" gradientUnits="userSpaceOnUse"><stop stop-color="#FFDB44"/><stop offset="1" stop-color="#FEEF06"/></linearGradient><linearGradient id="paint1_linear" x1="29.429" y1="99.948" x2="41.21" y2="83.034" gradientUnits="userSpaceOnUse"><stop stop-color="#FCB148"/><stop offset=".052" stop-color="#FDBA46"/><stop offset=".142" stop-color="#FFC244"/><stop offset=".318" stop-color="#FFC444"/><stop offset=".485" stop-color="#FDB946"/><stop offset=".775" stop-color="#F99C4D"/><stop offset=".866" stop-color="#F8924F"/><stop offset="1" stop-color="#F8924F"/></linearGradient><linearGradient id="paint2_linear" x1="29.604" y1="97.563" x2="40.647" y2="81.709" gradientUnits="userSpaceOnUse"><stop stop-color="#FFDB44"/><stop offset="1" stop-color="#FEEF06"/></linearGradient><linearGradient id="paint3_linear" x1="30.314" y1="95.283" x2="40.261" y2="81.002" gradientUnits="userSpaceOnUse"><stop stop-color="#FCB148"/><stop offset=".052" stop-color="#FDBA46"/><stop offset=".142" stop-color="#FFC244"/><stop offset=".318" stop-color="#FFC444"/><stop offset=".485" stop-color="#FDB946"/><stop offset=".775" stop-color="#F99C4D"/><stop offset=".866" stop-color="#F8924F"/><stop offset="1" stop-color="#F8924F"/></linearGradient><linearGradient id="paint4_linear" x1="30.417" y1="89.313" x2="41.409" y2="73.531" gradientUnits="userSpaceOnUse"><stop stop-color="#FCB148"/><stop offset=".052" stop-color="#FDBA46"/><stop offset=".142" stop-color="#FFC244"/><stop offset=".318" stop-color="#FFC444"/><stop offset=".485" stop-color="#FDB946"/><stop offset=".775" stop-color="#F99C4D"/><stop offset=".866" stop-color="#F8924F"/><stop offset="1" stop-color="#F8924F"/></linearGradient><linearGradient id="paint5_linear" x1="35.293" y1="86.035" x2="27.609" y2="75.004" gradientUnits="userSpaceOnUse"><stop stop-color="#FCB148"/><stop offset=".052" stop-color="#FDBA46"/><stop offset=".142" stop-color="#FFC244"/><stop offset=".318" stop-color="#FFC444"/><stop offset=".485" stop-color="#FDB946"/><stop offset=".775" stop-color="#F99C4D"/><stop offset=".866" stop-color="#F8924F"/><stop offset="1" stop-color="#F8924F"/></linearGradient><linearGradient id="paint6_linear" x1="43.562" y1="58.225" x2="62.079" y2="31.642" gradientUnits="userSpaceOnUse"><stop stop-color="#FCB148"/><stop offset=".052" stop-color="#FDBA46"/><stop offset=".142" stop-color="#FFC244"/><stop offset=".318" stop-color="#FFC444"/><stop offset=".485" stop-color="#FDB946"/><stop offset=".775" stop-color="#F99C4D"/><stop offset=".866" stop-color="#F8924F"/><stop offset="1" stop-color="#F8924F"/></linearGradient><linearGradient id="paint7_linear" x1="82.814" y1="109.398" x2="15.015" y2="12.062" gradientUnits="userSpaceOnUse"><stop stop-color="#FCB148"/><stop offset=".052" stop-color="#FDBA46"/><stop offset=".142" stop-color="#FFC244"/><stop offset=".318" stop-color="#FFC444"/><stop offset=".485" stop-color="#FDB946"/><stop offset=".775" stop-color="#F99C4D"/><stop offset=".866" stop-color="#F8924F"/><stop offset="1" stop-color="#F8924F"/></linearGradient><linearGradient id="paint8_linear" x1="39.628" y1="73.59" x2="9.768" y2="30.722" gradientUnits="userSpaceOnUse"><stop stop-color="#FCB148"/><stop offset=".052" stop-color="#FDBA46"/><stop offset=".142" stop-color="#FFC244"/><stop offset=".318" stop-color="#FFC444"/><stop offset=".485" stop-color="#FDB946"/><stop offset=".775" stop-color="#F99C4D"/><stop offset=".866" stop-color="#F8924F"/><stop offset="1" stop-color="#F8924F"/></linearGradient><linearGradient id="paint9_linear" x1="24.028" y1="60.727" x2="5.048" y2="33.477" gradientUnits="userSpaceOnUse"><stop stop-color="#FCB148"/><stop offset=".052" stop-color="#FDBA46"/><stop offset=".142" stop-color="#FFC244"/><stop offset=".318" stop-color="#FFC444"/><stop offset=".485" stop-color="#FDB946"/><stop offset=".775" stop-color="#F99C4D"/><stop offset=".866" stop-color="#F8924F"/><stop offset="1" stop-color="#F8924F"/></linearGradient><linearGradient id="paint10_linear" x1="35.069" y1="23.52" x2="30.81" y2="132.715" gradientUnits="userSpaceOnUse"><stop stop-color="#FFDB44"/><stop offset="1" stop-color="#FEEF06"/></linearGradient><linearGradient id="paint11_linear" x1="69.422" y1="75.097" x2="36.198" y2="27.399" gradientUnits="userSpaceOnUse"><stop stop-color="#FCB148"/><stop offset=".052" stop-color="#FDBA46"/><stop offset=".142" stop-color="#FFC244"/><stop offset=".318" stop-color="#FFC444"/><stop offset=".482" stop-color="#FEB946"/><stop offset=".603" stop-color="#FCAE49"/><stop offset=".866" stop-color="#F8924F"/><stop offset="1" stop-color="#F8924F"/></linearGradient><linearGradient id="paint12_linear" x1="69.422" y1="75.097" x2="36.198" y2="27.399" gradientUnits="userSpaceOnUse"><stop stop-color="#FCB148"/><stop offset=".052" stop-color="#FDBA46"/><stop offset=".142" stop-color="#FFC244"/><stop offset=".318" stop-color="#FFC444"/><stop offset=".485" stop-color="#FDB946"/><stop offset=".775" stop-color="#F99C4D"/><stop offset=".866" stop-color="#F8924F"/><stop offset="1" stop-color="#F8924F"/></linearGradient><linearGradient id="paint13_linear" x1="43.604" y1="18.725" x2="55.041" y2="15.183" gradientUnits="userSpaceOnUse"><stop stop-color="#78A9EF"/><stop offset=".708" stop-color="#9FC2FC"/></linearGradient><linearGradient id="paint14_linear" x1="49.537" y1="19.736" x2="62.934" y2="19.736" gradientUnits="userSpaceOnUse"><stop stop-color="#56BDE2"/><stop offset=".709" stop-color="#568FE2"/></linearGradient><linearGradient id="paint15_linear" x1="72.04" y1="7.766" x2="68.78" y2="47.291" gradientUnits="userSpaceOnUse"><stop stop-color="#78A9EF"/><stop offset=".708" stop-color="#9FC2FC"/></linearGradient><linearGradient id="paint16_linear" x1="56.935" y1="8.747" x2="57.16" y2="17.052" gradientUnits="userSpaceOnUse"><stop stop-color="#56BDE2"/><stop offset=".709" stop-color="#568FE2"/></linearGradient><linearGradient id="paint17_linear" x1="72.7" y1="19.741" x2="65.585" y2="24.03" gradientUnits="userSpaceOnUse"><stop stop-color="#56BDE2"/><stop offset=".709" stop-color="#568FE2"/></linearGradient><linearGradient id="paint18_linear" x1="39.492" y1="54.188" x2="27.74" y2="72.979" gradientUnits="userSpaceOnUse"><stop stop-color="#56BDE2"/><stop offset=".709" stop-color="#568FE2"/></linearGradient><linearGradient id="paint19_linear" x1="56.388" y1="68.133" x2="33.239" y2="43.006" gradientUnits="userSpaceOnUse"><stop stop-color="#56BDE2"/><stop offset=".709" stop-color="#568FE2"/></linearGradient><linearGradient id="paint20_linear" x1="44.919" y1="36.401" x2="28.138" y2="77.103" gradientUnits="userSpaceOnUse"><stop stop-color="#0084ED"/><stop offset=".205" stop-color="#237ED3"/><stop offset=".491" stop-color="#3152C9"/><stop offset=".767" stop-color="#3937C3"/><stop offset=".967" stop-color="#3C2DC1"/></linearGradient><linearGradient id="paint21_linear" x1="45.806" y1="36.401" x2="29.026" y2="77.103" gradientUnits="userSpaceOnUse"><stop stop-color="#FFC444"/><stop offset=".996" stop-color="#F36F56"/></linearGradient><linearGradient id="paint22_linear" x1="36.891" y1="56.912" x2="48.646" y2="31.859" gradientUnits="userSpaceOnUse"><stop stop-color="#FFC444"/><stop offset=".996" stop-color="#F36F56"/></linearGradient><linearGradient id="paint23_linear" x1="44.813" y1="40.406" x2="29.272" y2="72.081" gradientUnits="userSpaceOnUse"><stop stop-color="#FFC444"/><stop offset=".996" stop-color="#F36F56"/></linearGradient><linearGradient id="paint24_linear" x1="80.242" y1="81.088" x2="70.465" y2="81.088" gradientUnits="userSpaceOnUse"><stop stop-color="#78A9EF"/><stop offset=".708" stop-color="#9FC2FC"/></linearGradient><linearGradient id="paint25_linear" x1="79.11" y1="46.092" x2="73.919" y2="43.23" gradientUnits="userSpaceOnUse"><stop stop-color="#0084ED"/><stop offset=".205" stop-color="#237ED3"/><stop offset=".491" stop-color="#3152C9"/><stop offset=".767" stop-color="#3937C3"/><stop offset=".967" stop-color="#3C2DC1"/></linearGradient></defs></svg>