<svg
    width="24"
    height="24"
    viewBox="0 0 24 24"
    fill="none"
    xmlns="http://www.w3.org/2000/svg"
  >
    <path
      d="M3 12L5 10M5 10L12 3L19 10M5 10V18C5 19.1046 5.89543 20 7 20H9M19 10L21 12M19 10V18C19 19.1046 18.1046 20 17 20H15M9 20C10.1046 20 11 19.1046 11 18V16C11 14.8954 11.8954 14 13 14H15C16.1046 14 17 14.8954 17 16V18C17 19.1046 17.8954 20 19 20M9 20H19"
      stroke="currentColor"
      strokeWidth="2"
      strokeLinecap="round"
      strokeLinejoin="round"
    />
  </svg>