<svg width="17" height="24" viewBox="0 0 17 24" fill="none" xmlns="http://www.w3.org/2000/svg">
<g clip-path="url(#clip0_95_1100)">
<path d="M8.39997 11.4C7.60433 11.4 6.84128 11.0839 6.27867 10.5213C5.71607 9.95873 5.39999 9.1956 5.39999 8.39997C5.39999 7.60433 5.71607 6.84128 6.27867 6.27867C6.84128 5.71607 7.60433 5.39999 8.39997 5.39999C9.1956 5.39999 9.95873 5.71607 10.5213 6.27867C11.0839 6.84128 11.4 7.60433 11.4 8.39997C11.4 8.79392 11.3224 9.18408 11.1717 9.54802C11.0208 9.91204 10.7999 10.2427 10.5213 10.5213C10.2427 10.7999 9.91204 11.0208 9.54802 11.1717C9.18408 11.3224 8.79392 11.4 8.39997 11.4ZM8.39997 0C6.17217 0 4.0356 0.884993 2.4603 2.4603C0.884993 4.0356 0 6.17217 0 8.39997C0 14.7 8.39997 24 8.39997 24C8.39997 24 16.8 14.7 16.8 8.39997C16.8 6.17217 15.915 4.0356 14.3397 2.4603C12.7644 0.884993 10.6278 0 8.39997 0Z" fill="#7FBD63"/>
</g>
<defs>
<clipPath id="clip0_95_1100">
<rect width="17" height="24" fill="white"/>
</clipPath>
</defs>
</svg>
