<svg width="725" height="187" viewBox="0 0 725 187" fill="none" xmlns="http://www.w3.org/2000/svg">
<path d="M27.4999 185.8C26.8999 184 27.3999 30.2995 27.9999 29.5995C28.7999 28.8995 142 28.2995 163.8 28.9995L182.1 29.4995L182.2 106C182.2 148.1 182.2 183.5 182.1 184.8L182 187H159.3L136.5 186.9L111.6 155.7C97.8999 138.5 86.4999 124 86.3999 123.5C86.2999 122.9 95.6999 113.7 107.4 103L128.7 83.4995L138.6 82.8995C144 82.5995 148.9 82.6995 149.3 82.9995C149.8 83.3995 140.2 92.7995 128.1 104C115.9 115.1 106 124.5 106 124.8C106 125.1 110.4 130.8 115.8 137.4C121.2 144.1 126.5 150.7 127.5 152.1C132.5 158.7 141.4 169.7 143.1 171.1C144.6 172.5 147.3 172.8 156.5 172.9L168 173.1L167.8 107.8L167.5 42.4995L105 42.7995L42.4999 43.0995L42.1999 108L41.9999 173H66.3999H90.7999L95.8999 179.4C98.6999 182.9 101 186.1 101 186.4C101 186.7 84.5999 187 64.4999 187C36.0999 187 27.7999 186.7 27.4999 185.8Z" fill="#7FBD63"/>
<path d="M0.2 80.1L0.5 1.1L77.5 0.8L154.5 0.5L154.8 7.7L155.1 15H84.5H14V87V159H7H0L0.2 80.1Z" fill="#7FBD63"/>
<mask id="path-3-outside-1_82_1108" maskUnits="userSpaceOnUse" x="227" y="28" width="490" height="98" fill="black">
<rect fill="white" x="227" y="28" width="490" height="98"/>
<path d="M230.696 121V31.4H236.2V71.336H252.84L278.44 31.4H285.096L257.576 73.64V73.896L286.888 121H280.232L252.84 76.456H236.2V121H230.696ZM300.493 103.976C300.493 82.216 328.781 81.96 340.173 81.96H344.397V79.784C344.397 65.576 337.101 60.712 326.861 60.712C320.333 60.712 313.805 62.888 308.557 66.856L305.485 62.504C310.477 58.152 319.053 55.464 327.117 55.464C341.837 55.464 349.773 63.656 349.773 79.656V121H344.397V112.552C344.397 109.096 344.909 106.792 344.909 106.792H344.653C341.453 115.112 333.389 122.536 322.253 122.536C311.885 122.536 300.493 116.776 300.493 103.976ZM306.125 103.592C306.125 110.376 311.629 117.544 322.509 117.544C336.461 117.544 344.397 103.08 344.397 90.408V86.952H340.301C329.421 86.952 306.125 86.952 306.125 103.592ZM376.501 121V57H427.829V121H422.453V61.992H381.877V121H376.501ZM455.246 121V57H460.622V102.568C460.622 106.92 460.238 112.936 460.238 112.936H460.494C460.494 112.936 464.974 106.536 467.79 102.568L502.734 57H507.726V121H502.35V75.304C502.35 70.952 502.734 65.32 502.734 65.32H502.478C502.478 65.32 497.998 71.336 495.182 75.304L460.238 121H455.246ZM551.5 121V61.992H527.18V57H581.196V61.992H556.876V121H551.5ZM594.098 103.976C594.098 82.216 622.386 81.96 633.778 81.96H638.002V79.784C638.002 65.576 630.706 60.712 620.466 60.712C613.938 60.712 607.41 62.888 602.162 66.856L599.09 62.504C604.082 58.152 612.658 55.464 620.722 55.464C635.442 55.464 643.378 63.656 643.378 79.656V121H638.002V112.552C638.002 109.096 638.514 106.792 638.514 106.792H638.258C635.058 115.112 626.994 122.536 615.858 122.536C605.49 122.536 594.098 116.776 594.098 103.976ZM599.73 103.592C599.73 110.376 605.234 117.544 616.114 117.544C630.066 117.544 638.002 103.08 638.002 90.408V86.952H633.906C623.026 86.952 599.73 86.952 599.73 103.592ZM661.53 121.512V116.52C673.562 114.6 677.658 100.136 677.658 76.072V57H713.498V121H708.122V61.992H683.034V76.072C683.034 107.304 675.866 119.848 661.53 121.512Z"/>
</mask>
<path d="M230.696 121V31.4H236.2V71.336H252.84L278.44 31.4H285.096L257.576 73.64V73.896L286.888 121H280.232L252.84 76.456H236.2V121H230.696ZM300.493 103.976C300.493 82.216 328.781 81.96 340.173 81.96H344.397V79.784C344.397 65.576 337.101 60.712 326.861 60.712C320.333 60.712 313.805 62.888 308.557 66.856L305.485 62.504C310.477 58.152 319.053 55.464 327.117 55.464C341.837 55.464 349.773 63.656 349.773 79.656V121H344.397V112.552C344.397 109.096 344.909 106.792 344.909 106.792H344.653C341.453 115.112 333.389 122.536 322.253 122.536C311.885 122.536 300.493 116.776 300.493 103.976ZM306.125 103.592C306.125 110.376 311.629 117.544 322.509 117.544C336.461 117.544 344.397 103.08 344.397 90.408V86.952H340.301C329.421 86.952 306.125 86.952 306.125 103.592ZM376.501 121V57H427.829V121H422.453V61.992H381.877V121H376.501ZM455.246 121V57H460.622V102.568C460.622 106.92 460.238 112.936 460.238 112.936H460.494C460.494 112.936 464.974 106.536 467.79 102.568L502.734 57H507.726V121H502.35V75.304C502.35 70.952 502.734 65.32 502.734 65.32H502.478C502.478 65.32 497.998 71.336 495.182 75.304L460.238 121H455.246ZM551.5 121V61.992H527.18V57H581.196V61.992H556.876V121H551.5ZM594.098 103.976C594.098 82.216 622.386 81.96 633.778 81.96H638.002V79.784C638.002 65.576 630.706 60.712 620.466 60.712C613.938 60.712 607.41 62.888 602.162 66.856L599.09 62.504C604.082 58.152 612.658 55.464 620.722 55.464C635.442 55.464 643.378 63.656 643.378 79.656V121H638.002V112.552C638.002 109.096 638.514 106.792 638.514 106.792H638.258C635.058 115.112 626.994 122.536 615.858 122.536C605.49 122.536 594.098 116.776 594.098 103.976ZM599.73 103.592C599.73 110.376 605.234 117.544 616.114 117.544C630.066 117.544 638.002 103.08 638.002 90.408V86.952H633.906C623.026 86.952 599.73 86.952 599.73 103.592ZM661.53 121.512V116.52C673.562 114.6 677.658 100.136 677.658 76.072V57H713.498V121H708.122V61.992H683.034V76.072C683.034 107.304 675.866 119.848 661.53 121.512Z" fill="black"/>
<path d="M230.696 121H227.696V124H230.696V121ZM230.696 31.4V28.4H227.696V31.4H230.696ZM236.2 31.4H239.2V28.4H236.2V31.4ZM236.2 71.336H233.2V74.336H236.2V71.336ZM252.84 71.336V74.336H254.48L255.366 72.955L252.84 71.336ZM278.44 31.4V28.4H276.8L275.914 29.781L278.44 31.4ZM285.096 31.4L287.61 33.0376L290.631 28.4H285.096V31.4ZM257.576 73.64L255.062 72.0024L254.576 72.7489V73.64H257.576ZM257.576 73.896H254.576V74.7532L255.029 75.481L257.576 73.896ZM286.888 121V124H292.288L289.435 119.415L286.888 121ZM280.232 121L277.677 122.571L278.555 124H280.232V121ZM252.84 76.456L255.395 74.8845L254.517 73.456H252.84V76.456ZM236.2 76.456V73.456H233.2V76.456H236.2ZM236.2 121V124H239.2V121H236.2ZM230.696 121H233.696V31.4H230.696H227.696V121H230.696ZM230.696 31.4V34.4H236.2V31.4V28.4H230.696V31.4ZM236.2 31.4H233.2V71.336H236.2H239.2V31.4H236.2ZM236.2 71.336V74.336H252.84V71.336V68.336H236.2V71.336ZM252.84 71.336L255.366 72.955L280.966 33.019L278.44 31.4L275.914 29.781L250.314 69.717L252.84 71.336ZM278.44 31.4V34.4H285.096V31.4V28.4H278.44V31.4ZM285.096 31.4L282.582 29.7624L255.062 72.0024L257.576 73.64L260.09 75.2776L287.61 33.0376L285.096 31.4ZM257.576 73.64H254.576V73.896H257.576H260.576V73.64H257.576ZM257.576 73.896L255.029 75.481L284.341 122.585L286.888 121L289.435 119.415L260.123 72.311L257.576 73.896ZM286.888 121V118H280.232V121V124H286.888V121ZM280.232 121L282.787 119.429L255.395 74.8845L252.84 76.456L250.285 78.0275L277.677 122.571L280.232 121ZM252.84 76.456V73.456H236.2V76.456V79.456H252.84V76.456ZM236.2 76.456H233.2V121H236.2H239.2V76.456H236.2ZM236.2 121V118H230.696V121V124H236.2V121ZM344.397 81.96V84.96H347.397V81.96H344.397ZM308.557 66.856L306.106 68.586L307.894 71.1185L310.366 69.249L308.557 66.856ZM305.485 62.504L303.514 60.2427L301.473 62.022L303.034 64.234L305.485 62.504ZM349.773 121V124H352.773V121H349.773ZM344.397 121H341.397V124H344.397V121ZM344.909 106.792L347.838 107.443L348.649 103.792H344.909V106.792ZM344.653 106.792V103.792H342.593L341.853 105.715L344.653 106.792ZM344.397 86.952H347.397V83.952H344.397V86.952ZM300.493 103.976H303.493C303.493 99.2552 305 95.8919 307.301 93.3843C309.664 90.8094 313.035 88.9564 316.995 87.6588C324.973 85.0446 334.431 84.96 340.173 84.96V81.96V78.96C334.523 78.96 324.141 79.0034 315.127 81.9572C310.591 83.4436 306.178 85.7346 302.881 89.3277C299.522 92.9881 297.493 97.8168 297.493 103.976H300.493ZM340.173 81.96V84.96H344.397V81.96V78.96H340.173V81.96ZM344.397 81.96H347.397V79.784H344.397H341.397V81.96H344.397ZM344.397 79.784H347.397C347.397 72.1974 345.444 66.5127 341.551 62.7601C337.678 59.0268 332.407 57.712 326.861 57.712V60.712V63.712C331.555 63.712 335.052 64.8292 337.387 67.0799C339.702 69.3113 341.397 73.1625 341.397 79.784H344.397ZM326.861 60.712V57.712C319.682 57.712 312.518 60.1001 306.748 64.463L308.557 66.856L310.366 69.249C315.092 65.6759 320.984 63.712 326.861 63.712V60.712ZM308.557 66.856L311.008 65.1259L307.936 60.7739L305.485 62.504L303.034 64.234L306.106 68.586L308.557 66.856ZM305.485 62.504L307.456 64.7653C311.76 61.0131 319.565 58.464 327.117 58.464V55.464V52.464C318.541 52.464 309.194 55.2909 303.514 60.2427L305.485 62.504ZM327.117 55.464V58.464C333.93 58.464 338.693 60.3482 341.784 63.6201C344.903 66.9212 346.773 72.1132 346.773 79.656H349.773H352.773C352.773 71.1988 350.675 64.2948 346.146 59.4999C341.589 54.6758 335.024 52.464 327.117 52.464V55.464ZM349.773 79.656H346.773V121H349.773H352.773V79.656H349.773ZM349.773 121V118H344.397V121V124H349.773V121ZM344.397 121H347.397V112.552H344.397H341.397V121H344.397ZM344.397 112.552H347.397C347.397 110.97 347.514 109.658 347.629 108.754C347.686 108.303 347.743 107.956 347.783 107.731C347.803 107.619 347.819 107.537 347.828 107.488C347.833 107.464 347.837 107.448 347.838 107.44C347.839 107.436 347.839 107.434 347.839 107.435C347.839 107.435 347.839 107.436 347.839 107.437C347.839 107.438 347.838 107.439 347.838 107.44C347.838 107.44 347.838 107.441 347.838 107.441C347.838 107.441 347.838 107.442 347.838 107.442C347.838 107.442 347.838 107.443 344.909 106.792C341.98 106.141 341.98 106.142 341.98 106.142C341.98 106.142 341.98 106.143 341.98 106.143C341.98 106.144 341.98 106.145 341.98 106.145C341.979 106.147 341.979 106.148 341.978 106.15C341.978 106.154 341.977 106.158 341.976 106.163C341.974 106.172 341.971 106.184 341.968 106.198C341.962 106.225 341.955 106.262 341.946 106.307C341.927 106.398 341.903 106.523 341.875 106.681C341.819 106.996 341.748 107.441 341.677 107.998C341.536 109.11 341.397 110.678 341.397 112.552H344.397ZM344.909 106.792V103.792H344.653V106.792V109.792H344.909V106.792ZM344.653 106.792L341.853 105.715C339.011 113.103 331.921 119.536 322.253 119.536V122.536V125.536C334.857 125.536 343.895 117.121 347.453 107.869L344.653 106.792ZM322.253 122.536V119.536C317.568 119.536 312.787 118.225 309.259 115.637C305.831 113.122 303.493 109.354 303.493 103.976H300.493H297.493C297.493 111.398 300.851 116.91 305.711 120.475C310.471 123.967 316.57 125.536 322.253 125.536V122.536ZM306.125 103.592H303.125C303.125 112.133 310.074 120.544 322.509 120.544V117.544V114.544C313.184 114.544 309.125 108.619 309.125 103.592H306.125ZM322.509 117.544V120.544C330.653 120.544 336.96 116.283 341.123 110.476C345.249 104.721 347.397 97.313 347.397 90.408H344.397H341.397C341.397 96.175 339.577 102.335 336.247 106.98C332.954 111.573 328.317 114.544 322.509 114.544V117.544ZM344.397 90.408H347.397V86.952H344.397H341.397V90.408H344.397ZM344.397 86.952V83.952H340.301V86.952V89.952H344.397V86.952ZM340.301 86.952V83.952C334.937 83.952 325.96 83.9321 318.299 86.1504C314.445 87.266 310.665 89.0161 307.82 91.8444C304.893 94.7543 303.125 98.643 303.125 103.592H306.125H309.125C309.125 100.221 310.269 97.8697 312.05 96.0996C313.913 94.2479 316.637 92.878 319.967 91.9136C326.674 89.9719 334.785 89.952 340.301 89.952V86.952ZM376.501 121H373.501V124H376.501V121ZM376.501 57V54H373.501V57H376.501ZM427.829 57H430.829V54H427.829V57ZM427.829 121V124H430.829V121H427.829ZM422.453 121H419.453V124H422.453V121ZM422.453 61.992H425.453V58.992H422.453V61.992ZM381.877 61.992V58.992H378.877V61.992H381.877ZM381.877 121V124H384.877V121H381.877ZM376.501 121H379.501V57H376.501H373.501V121H376.501ZM376.501 57V60H427.829V57V54H376.501V57ZM427.829 57H424.829V121H427.829H430.829V57H427.829ZM427.829 121V118H422.453V121V124H427.829V121ZM422.453 121H425.453V61.992H422.453H419.453V121H422.453ZM422.453 61.992V58.992H381.877V61.992V64.992H422.453V61.992ZM381.877 61.992H378.877V121H381.877H384.877V61.992H381.877ZM381.877 121V118H376.501V121V124H381.877V121ZM455.246 121H452.246V124H455.246V121ZM455.246 57V54H452.246V57H455.246ZM460.622 57H463.622V54H460.622V57ZM460.238 112.936L457.244 112.745L457.04 115.936H460.238V112.936ZM460.494 112.936V115.936H462.056L462.952 114.656L460.494 112.936ZM467.79 102.568L465.409 100.742L465.376 100.786L465.343 100.832L467.79 102.568ZM502.734 57V54H501.254L500.353 55.1744L502.734 57ZM507.726 57H510.726V54H507.726V57ZM507.726 121V124H510.726V121H507.726ZM502.35 121H499.35V124H502.35V121ZM502.734 65.32L505.727 65.5241L505.946 62.32H502.734V65.32ZM502.478 65.32V62.32H500.972L500.072 63.5282L502.478 65.32ZM495.182 75.304L497.565 77.1263L497.598 77.0839L497.629 77.0402L495.182 75.304ZM460.238 121V124H461.721L462.621 122.822L460.238 121ZM455.246 121H458.246V57H455.246H452.246V121H455.246ZM455.246 57V60H460.622V57V54H455.246V57ZM460.622 57H457.622V102.568H460.622H463.622V57H460.622ZM460.622 102.568H457.622C457.622 104.673 457.529 107.209 457.433 109.244C457.386 110.255 457.338 111.133 457.303 111.757C457.285 112.069 457.27 112.318 457.26 112.487C457.255 112.572 457.251 112.637 457.248 112.681C457.247 112.703 457.246 112.719 457.245 112.73C457.245 112.735 457.244 112.739 457.244 112.742C457.244 112.743 457.244 112.744 457.244 112.744C457.244 112.745 457.244 112.745 457.244 112.745C457.244 112.745 457.244 112.745 457.244 112.745C457.244 112.745 457.244 112.745 460.238 112.936C463.232 113.127 463.232 113.127 463.232 113.127C463.232 113.127 463.232 113.127 463.232 113.127C463.232 113.126 463.232 113.126 463.232 113.125C463.232 113.125 463.232 113.123 463.232 113.122C463.232 113.118 463.233 113.114 463.233 113.108C463.234 113.095 463.235 113.077 463.237 113.054C463.239 113.007 463.244 112.939 463.249 112.851C463.26 112.674 463.275 112.419 463.293 112.099C463.33 111.459 463.378 110.561 463.427 109.524C463.523 107.463 463.622 104.815 463.622 102.568H460.622ZM460.238 112.936V115.936H460.494V112.936V109.936H460.238V112.936ZM460.494 112.936C462.952 114.656 462.952 114.656 462.952 114.656C462.952 114.656 462.952 114.656 462.952 114.656C462.952 114.656 462.952 114.656 462.952 114.655C462.953 114.654 462.954 114.653 462.955 114.652C462.957 114.649 462.96 114.644 462.965 114.638C462.973 114.626 462.986 114.608 463.002 114.584C463.036 114.536 463.085 114.466 463.149 114.374C463.277 114.192 463.463 113.927 463.695 113.596C464.158 112.934 464.806 112.011 465.541 110.964C467.013 108.869 468.833 106.282 470.237 104.304L467.79 102.568L465.343 100.832C463.931 102.822 462.103 105.419 460.631 107.516C459.894 108.565 459.246 109.49 458.781 110.152C458.549 110.483 458.363 110.749 458.235 110.932C458.171 111.024 458.121 111.094 458.088 111.142C458.071 111.166 458.058 111.185 458.049 111.197C458.045 111.203 458.042 111.208 458.04 111.211C458.039 111.212 458.038 111.214 458.037 111.214C458.037 111.215 458.037 111.215 458.037 111.215C458.036 111.215 458.036 111.215 458.036 111.216C458.036 111.216 458.036 111.216 460.494 112.936ZM467.79 102.568L470.171 104.394L505.115 58.8256L502.734 57L500.353 55.1744L465.409 100.742L467.79 102.568ZM502.734 57V60H507.726V57V54H502.734V57ZM507.726 57H504.726V121H507.726H510.726V57H507.726ZM507.726 121V118H502.35V121V124H507.726V121ZM502.35 121H505.35V75.304H502.35H499.35V121H502.35ZM502.35 75.304H505.35C505.35 73.2012 505.443 70.7622 505.538 68.8274C505.586 67.8647 505.633 67.0361 505.669 66.4489C505.686 66.1554 505.701 65.9226 505.711 65.7639C505.716 65.6846 505.72 65.6238 505.723 65.5833C505.724 65.563 505.725 65.5478 505.726 65.5379C505.726 65.5329 505.727 65.5292 505.727 65.5269C505.727 65.5258 505.727 65.525 505.727 65.5245C505.727 65.5242 505.727 65.5241 505.727 65.524C505.727 65.524 505.727 65.524 505.727 65.524C505.727 65.524 505.727 65.5241 502.734 65.32C499.741 65.1159 499.741 65.116 499.741 65.1161C499.741 65.1162 499.741 65.1164 499.741 65.1165C499.741 65.1168 499.741 65.1171 499.741 65.1176C499.741 65.1185 499.741 65.1197 499.741 65.1213C499.74 65.1244 499.74 65.1289 499.74 65.1347C499.739 65.1464 499.738 65.1633 499.736 65.1853C499.733 65.2294 499.729 65.2939 499.724 65.3771C499.713 65.5434 499.698 65.7846 499.679 66.0871C499.643 66.6919 499.594 67.5433 499.546 68.5326C499.449 70.5018 499.35 73.0548 499.35 75.304H502.35ZM502.734 65.32V62.32H502.478V65.32V68.32H502.734V65.32ZM502.478 65.32C500.072 63.5282 500.072 63.5282 500.072 63.5283C500.072 63.5284 500.072 63.5284 500.072 63.5285C500.071 63.5287 500.071 63.529 500.071 63.5294C500.07 63.5302 500.07 63.5314 500.068 63.5329C500.066 63.5359 500.063 63.5403 500.059 63.5461C500.05 63.5578 500.037 63.5752 500.02 63.5979C499.986 63.6433 499.936 63.7103 499.872 63.7969C499.743 63.97 499.557 64.2215 499.324 64.5356C498.858 65.1636 498.208 66.0424 497.47 67.0457C495.996 69.0485 494.159 71.5617 492.735 73.5678L495.182 75.304L497.629 77.0402C499.021 75.0783 500.832 72.5995 502.302 70.6023C503.036 69.6056 503.682 68.7324 504.144 68.1084C504.375 67.7965 504.561 67.547 504.688 67.3756C504.752 67.2899 504.801 67.2238 504.834 67.1792C504.851 67.1568 504.863 67.1399 504.872 67.1286C504.876 67.1229 504.879 67.1187 504.881 67.1159C504.882 67.1145 504.883 67.1134 504.883 67.1128C504.884 67.1124 504.884 67.1122 504.884 67.112C504.884 67.1119 504.884 67.1119 504.884 67.1118C504.884 67.1118 504.884 67.1118 502.478 65.32ZM495.182 75.304L492.799 73.4816L457.855 119.178L460.238 121L462.621 122.822L497.565 77.1263L495.182 75.304ZM460.238 121V118H455.246V121V124H460.238V121ZM551.5 121H548.5V124H551.5V121ZM551.5 61.992H554.5V58.992H551.5V61.992ZM527.18 61.992H524.18V64.992H527.18V61.992ZM527.18 57V54H524.18V57H527.18ZM581.196 57H584.196V54H581.196V57ZM581.196 61.992V64.992H584.196V61.992H581.196ZM556.876 61.992V58.992H553.876V61.992H556.876ZM556.876 121V124H559.876V121H556.876ZM551.5 121H554.5V61.992H551.5H548.5V121H551.5ZM551.5 61.992V58.992H527.18V61.992V64.992H551.5V61.992ZM527.18 61.992H530.18V57H527.18H524.18V61.992H527.18ZM527.18 57V60H581.196V57V54H527.18V57ZM581.196 57H578.196V61.992H581.196H584.196V57H581.196ZM581.196 61.992V58.992H556.876V61.992V64.992H581.196V61.992ZM556.876 61.992H553.876V121H556.876H559.876V61.992H556.876ZM556.876 121V118H551.5V121V124H556.876V121ZM638.002 81.96V84.96H641.002V81.96H638.002ZM602.162 66.856L599.711 68.586L601.499 71.1185L603.971 69.249L602.162 66.856ZM599.09 62.504L597.119 60.2427L595.078 62.022L596.639 64.234L599.09 62.504ZM643.378 121V124H646.378V121H643.378ZM638.002 121H635.002V124H638.002V121ZM638.514 106.792L641.443 107.443L642.254 103.792H638.514V106.792ZM638.258 106.792V103.792H636.198L635.458 105.715L638.258 106.792ZM638.002 86.952H641.002V83.952H638.002V86.952ZM594.098 103.976H597.098C597.098 99.2552 598.605 95.8919 600.906 93.3843C603.269 90.8094 606.64 88.9564 610.6 87.6588C618.578 85.0446 628.037 84.96 633.778 84.96V81.96V78.96C628.128 78.96 617.746 79.0034 608.732 81.9572C604.196 83.4436 599.783 85.7346 596.486 89.3277C593.127 92.9881 591.098 97.8168 591.098 103.976H594.098ZM633.778 81.96V84.96H638.002V81.96V78.96H633.778V81.96ZM638.002 81.96H641.002V79.784H638.002H635.002V81.96H638.002ZM638.002 79.784H641.002C641.002 72.1974 639.049 66.5127 635.156 62.7601C631.283 59.0268 626.012 57.712 620.466 57.712V60.712V63.712C625.16 63.712 628.657 64.8292 630.992 67.0799C633.307 69.3113 635.002 73.1625 635.002 79.784H638.002ZM620.466 60.712V57.712C613.287 57.712 606.123 60.1001 600.353 64.463L602.162 66.856L603.971 69.249C608.697 65.6759 614.589 63.712 620.466 63.712V60.712ZM602.162 66.856L604.613 65.1259L601.541 60.7739L599.09 62.504L596.639 64.234L599.711 68.586L602.162 66.856ZM599.09 62.504L601.061 64.7653C605.365 61.0131 613.17 58.464 620.722 58.464V55.464V52.464C612.146 52.464 602.799 55.2909 597.119 60.2427L599.09 62.504ZM620.722 55.464V58.464C627.535 58.464 632.298 60.3482 635.389 63.6201C638.508 66.9212 640.378 72.1132 640.378 79.656H643.378H646.378C646.378 71.1988 644.28 64.2948 639.751 59.4999C635.194 54.6758 628.629 52.464 620.722 52.464V55.464ZM643.378 79.656H640.378V121H643.378H646.378V79.656H643.378ZM643.378 121V118H638.002V121V124H643.378V121ZM638.002 121H641.002V112.552H638.002H635.002V121H638.002ZM638.002 112.552H641.002C641.002 110.97 641.119 109.658 641.234 108.754C641.291 108.303 641.348 107.956 641.388 107.731C641.408 107.619 641.424 107.537 641.433 107.488C641.438 107.464 641.442 107.448 641.443 107.44C641.444 107.436 641.444 107.434 641.444 107.435C641.444 107.435 641.444 107.436 641.444 107.437C641.444 107.438 641.443 107.439 641.443 107.44C641.443 107.44 641.443 107.441 641.443 107.441C641.443 107.441 641.443 107.442 641.443 107.442C641.443 107.442 641.443 107.443 638.514 106.792C635.585 106.141 635.585 106.142 635.585 106.142C635.585 106.142 635.585 106.143 635.585 106.143C635.585 106.144 635.585 106.145 635.585 106.145C635.584 106.147 635.584 106.148 635.583 106.15C635.583 106.154 635.582 106.158 635.581 106.163C635.579 106.172 635.576 106.184 635.573 106.198C635.567 106.225 635.56 106.262 635.551 106.307C635.532 106.398 635.508 106.523 635.48 106.681C635.424 106.996 635.353 107.441 635.282 107.998C635.141 109.11 635.002 110.678 635.002 112.552H638.002ZM638.514 106.792V103.792H638.258V106.792V109.792H638.514V106.792ZM638.258 106.792L635.458 105.715C632.616 113.103 625.526 119.536 615.858 119.536V122.536V125.536C628.462 125.536 637.5 117.121 641.058 107.869L638.258 106.792ZM615.858 122.536V119.536C611.173 119.536 606.392 118.225 602.865 115.637C599.436 113.122 597.098 109.354 597.098 103.976H594.098H591.098C591.098 111.398 594.456 116.91 599.316 120.475C604.076 123.967 610.175 125.536 615.858 125.536V122.536ZM599.73 103.592H596.73C596.73 112.133 603.679 120.544 616.114 120.544V117.544V114.544C606.789 114.544 602.73 108.619 602.73 103.592H599.73ZM616.114 117.544V120.544C624.258 120.544 630.565 116.283 634.728 110.476C638.854 104.721 641.002 97.313 641.002 90.408H638.002H635.002C635.002 96.175 633.182 102.335 629.852 106.98C626.559 111.573 621.922 114.544 616.114 114.544V117.544ZM638.002 90.408H641.002V86.952H638.002H635.002V90.408H638.002ZM638.002 86.952V83.952H633.906V86.952V89.952H638.002V86.952ZM633.906 86.952V83.952C628.542 83.952 619.565 83.9321 611.904 86.1504C608.05 87.266 604.27 89.0161 601.425 91.8444C598.498 94.7543 596.73 98.643 596.73 103.592H599.73H602.73C602.73 100.221 603.874 97.8697 605.655 96.0996C607.518 94.2479 610.242 92.878 613.572 91.9136C620.279 89.9719 628.39 89.952 633.906 89.952V86.952ZM661.53 121.512H658.53V124.88L661.876 124.492L661.53 121.512ZM661.53 116.52L661.057 113.557L658.53 113.961V116.52H661.53ZM677.658 57V54H674.658V57H677.658ZM713.498 57H716.498V54H713.498V57ZM713.498 121V124H716.498V121H713.498ZM708.122 121H705.122V124H708.122V121ZM708.122 61.992H711.122V58.992H708.122V61.992ZM683.034 61.992V58.992H680.034V61.992H683.034ZM661.53 121.512H664.53V116.52H661.53H658.53V121.512H661.53ZM661.53 116.52L662.003 119.483C669.428 118.298 674.153 113.152 676.921 105.637C679.639 98.2581 680.658 88.1888 680.658 76.072H677.658H674.658C674.658 88.0192 673.629 97.2139 671.291 103.563C669.003 109.776 665.664 112.822 661.057 113.557L661.53 116.52ZM677.658 76.072H680.658V57H677.658H674.658V76.072H677.658ZM677.658 57V60H713.498V57V54H677.658V57ZM713.498 57H710.498V121H713.498H716.498V57H713.498ZM713.498 121V118H708.122V121V124H713.498V121ZM708.122 121H711.122V61.992H708.122H705.122V121H708.122ZM708.122 61.992V58.992H683.034V61.992V64.992H708.122V61.992ZM683.034 61.992H680.034V76.072H683.034H686.034V61.992H683.034ZM683.034 76.072H680.034C680.034 91.5613 678.239 101.937 674.969 108.55C673.359 111.806 671.421 114.088 669.208 115.651C666.995 117.213 664.356 118.164 661.184 118.532L661.53 121.512L661.876 124.492C665.872 124.028 669.505 122.787 672.668 120.553C675.831 118.32 678.373 115.202 680.347 111.21C684.245 103.327 686.034 91.8147 686.034 76.072H683.034Z" fill="black" mask="url(#path-3-outside-1_82_1108)"/>
<mask id="path-5-outside-2_82_1108" maskUnits="userSpaceOnUse" x="226" y="153" width="494" height="29" fill="black">
<rect fill="white" x="226" y="153" width="494" height="29"/>
<path d="M227.81 176L235.67 155H237.05L244.91 176H243.53L240.8 168.74H231.89L229.19 176H227.81ZM232.34 167.54H240.35L237.17 159.02C236.84 158.12 236.39 156.5 236.39 156.5H236.33C236.33 156.5 235.88 158.12 235.55 159.02L232.34 167.54ZM251.631 176V155H262.221V156.2H252.921V176H251.631ZM268.598 176V155H280.088V156.2H269.888V164.81H278.258V166.01H269.888V174.8H280.658V176H268.598ZM287.968 176V155H289.258V164.87H302.578V155H303.868V176H302.578V166.07H289.258V176H287.968ZM318.152 176V156.2H310.322V155H327.272V156.2H319.442V176H318.152ZM331.07 165.35C331.07 159.26 335.39 154.64 341.48 154.64C344.12 154.64 347 155.42 348.98 157.28L348.2 158.24C346.49 156.71 343.88 155.87 341.51 155.87C336.17 155.87 332.42 159.92 332.42 165.35C332.42 170.81 336.14 175.13 341.6 175.13C344.18 175.13 346.82 174.14 348.71 172.28L349.52 173.18C347.78 174.86 345.26 176.36 341.6 176.36C335.3 176.36 331.07 171.44 331.07 165.35ZM361.902 176V156.2H354.072V155H371.022V156.2H363.192V176H361.902ZM377.46 176V155H384.51C387.57 155 389.82 157.04 389.82 160.25C389.82 162.53 388.71 164.06 387.09 164.84V164.9C389.16 165.47 390.66 167.51 390.66 170.21C390.66 173.72 388.17 176 384.81 176H377.46ZM378.75 164.36H384.48C386.82 164.36 388.47 162.74 388.47 160.25C388.47 157.79 386.91 156.2 384.45 156.2H378.75V164.36ZM378.75 174.8H384.69C387.51 174.8 389.31 173.06 389.31 170.21C389.31 167.36 387.36 165.56 384.66 165.56H378.75V174.8ZM396.972 165.35C396.972 159.32 401.742 154.64 407.592 154.64C413.442 154.64 418.212 159.32 418.212 165.35C418.212 171.53 413.442 176.36 407.592 176.36C401.742 176.36 396.972 171.53 396.972 165.35ZM398.322 165.35C398.322 170.87 402.462 175.13 407.592 175.13C412.722 175.13 416.862 170.87 416.862 165.35C416.862 159.98 412.722 155.87 407.592 155.87C402.462 155.87 398.322 159.98 398.322 165.35ZM436.097 176V155H437.387V164.87H450.707V155H451.997V176H450.707V166.07H437.387V176H436.097ZM461.121 176V155H472.611V156.2H462.411V164.81H470.781V166.01H462.411V174.8H473.181V176H461.121ZM480.971 174.8H492.791V156.2H484.481V158.84C484.481 164.36 484.001 170.6 480.971 174.8ZM477.401 174.8H479.501C482.951 170.42 483.221 164 483.221 158.87V155H494.081V174.8H496.421V180.2H495.161V176H478.691V180.2H477.401V174.8ZM503.64 176V155H510.69C513.75 155 516 157.04 516 160.25C516 162.53 514.89 164.06 513.27 164.84V164.9C515.34 165.47 516.84 167.51 516.84 170.21C516.84 173.72 514.35 176 510.99 176H503.64ZM504.93 164.36H510.66C513 164.36 514.65 162.74 514.65 160.25C514.65 157.79 513.09 156.2 510.63 156.2H504.93V164.36ZM504.93 174.8H510.87C513.69 174.8 515.49 173.06 515.49 170.21C515.49 167.36 513.54 165.56 510.84 165.56H504.93V174.8ZM524.592 176V155H525.882V171.47C525.882 172.52 525.732 174.11 525.732 174.11H525.792C525.792 174.11 526.932 172.34 527.622 171.38L539.472 155H540.672V176H539.382V159.53C539.382 158.48 539.532 156.89 539.532 156.89H539.472C539.472 156.89 538.422 158.57 537.732 159.53L525.792 176H524.592ZM547.362 176L553.812 164.96V164.9L547.782 155H549.282L554.922 164.36H558.222V155H559.512V164.36H562.812L568.452 155H569.952L563.922 164.9V164.96L570.372 176H568.872L562.812 165.56H559.512V176H558.222V165.56H554.922L548.862 176H547.362ZM577.072 176V155H578.362V171.47C578.362 172.52 578.212 174.11 578.212 174.11H578.272C578.272 174.11 579.412 172.34 580.102 171.38L591.952 155H593.152V176H591.862V159.53C591.862 158.48 592.012 156.89 592.012 156.89H591.952C591.952 156.89 590.902 158.57 590.212 159.53L578.272 176H577.072ZM601.462 176L603.142 155H604.402L610.522 168.2C611.002 169.22 611.542 170.57 611.542 170.57H611.602C611.602 170.57 612.142 169.22 612.622 168.2L618.742 155H620.002L621.682 176H620.392L619.102 159.98C619.012 158.96 619.012 157.19 619.012 157.19H618.952C618.952 157.19 618.352 158.96 617.872 159.98L612.232 171.95H610.912L605.302 159.98C604.852 158.99 604.192 157.13 604.192 157.13H604.132C604.132 157.13 604.132 158.96 604.042 159.98L602.752 176H601.462ZM628.552 165.35C628.552 159.32 633.322 154.64 639.172 154.64C645.022 154.64 649.792 159.32 649.792 165.35C649.792 171.53 645.022 176.36 639.172 176.36C633.322 176.36 628.552 171.53 628.552 165.35ZM629.902 165.35C629.902 170.87 634.042 175.13 639.172 175.13C644.302 175.13 648.442 170.87 648.442 165.35C648.442 159.98 644.302 155.87 639.172 155.87C634.042 155.87 629.902 159.98 629.902 165.35ZM656.067 165.35C656.067 159.26 660.387 154.64 666.477 154.64C669.117 154.64 671.997 155.42 673.977 157.28L673.197 158.24C671.487 156.71 668.877 155.87 666.507 155.87C661.167 155.87 657.417 159.92 657.417 165.35C657.417 170.81 661.137 175.13 666.597 175.13C669.177 175.13 671.817 174.14 673.707 172.28L674.517 173.18C672.777 174.86 670.257 176.36 666.597 176.36C660.297 176.36 656.067 171.44 656.067 165.35ZM686.899 176V156.2H679.069V155H696.019V156.2H688.189V176H686.899ZM702.457 176V155H703.747V171.47C703.747 172.52 703.597 174.11 703.597 174.11H703.657C703.657 174.11 704.797 172.34 705.487 171.38L717.337 155H718.537V176H717.247V159.53C717.247 158.48 717.397 156.89 717.397 156.89H717.337C717.337 156.89 716.287 158.57 715.597 159.53L703.657 176H702.457Z"/>
</mask>
<path d="M227.81 176L235.67 155H237.05L244.91 176H243.53L240.8 168.74H231.89L229.19 176H227.81ZM232.34 167.54H240.35L237.17 159.02C236.84 158.12 236.39 156.5 236.39 156.5H236.33C236.33 156.5 235.88 158.12 235.55 159.02L232.34 167.54ZM251.631 176V155H262.221V156.2H252.921V176H251.631ZM268.598 176V155H280.088V156.2H269.888V164.81H278.258V166.01H269.888V174.8H280.658V176H268.598ZM287.968 176V155H289.258V164.87H302.578V155H303.868V176H302.578V166.07H289.258V176H287.968ZM318.152 176V156.2H310.322V155H327.272V156.2H319.442V176H318.152ZM331.07 165.35C331.07 159.26 335.39 154.64 341.48 154.64C344.12 154.64 347 155.42 348.98 157.28L348.2 158.24C346.49 156.71 343.88 155.87 341.51 155.87C336.17 155.87 332.42 159.92 332.42 165.35C332.42 170.81 336.14 175.13 341.6 175.13C344.18 175.13 346.82 174.14 348.71 172.28L349.52 173.18C347.78 174.86 345.26 176.36 341.6 176.36C335.3 176.36 331.07 171.44 331.07 165.35ZM361.902 176V156.2H354.072V155H371.022V156.2H363.192V176H361.902ZM377.46 176V155H384.51C387.57 155 389.82 157.04 389.82 160.25C389.82 162.53 388.71 164.06 387.09 164.84V164.9C389.16 165.47 390.66 167.51 390.66 170.21C390.66 173.72 388.17 176 384.81 176H377.46ZM378.75 164.36H384.48C386.82 164.36 388.47 162.74 388.47 160.25C388.47 157.79 386.91 156.2 384.45 156.2H378.75V164.36ZM378.75 174.8H384.69C387.51 174.8 389.31 173.06 389.31 170.21C389.31 167.36 387.36 165.56 384.66 165.56H378.75V174.8ZM396.972 165.35C396.972 159.32 401.742 154.64 407.592 154.64C413.442 154.64 418.212 159.32 418.212 165.35C418.212 171.53 413.442 176.36 407.592 176.36C401.742 176.36 396.972 171.53 396.972 165.35ZM398.322 165.35C398.322 170.87 402.462 175.13 407.592 175.13C412.722 175.13 416.862 170.87 416.862 165.35C416.862 159.98 412.722 155.87 407.592 155.87C402.462 155.87 398.322 159.98 398.322 165.35ZM436.097 176V155H437.387V164.87H450.707V155H451.997V176H450.707V166.07H437.387V176H436.097ZM461.121 176V155H472.611V156.2H462.411V164.81H470.781V166.01H462.411V174.8H473.181V176H461.121ZM480.971 174.8H492.791V156.2H484.481V158.84C484.481 164.36 484.001 170.6 480.971 174.8ZM477.401 174.8H479.501C482.951 170.42 483.221 164 483.221 158.87V155H494.081V174.8H496.421V180.2H495.161V176H478.691V180.2H477.401V174.8ZM503.64 176V155H510.69C513.75 155 516 157.04 516 160.25C516 162.53 514.89 164.06 513.27 164.84V164.9C515.34 165.47 516.84 167.51 516.84 170.21C516.84 173.72 514.35 176 510.99 176H503.64ZM504.93 164.36H510.66C513 164.36 514.65 162.74 514.65 160.25C514.65 157.79 513.09 156.2 510.63 156.2H504.93V164.36ZM504.93 174.8H510.87C513.69 174.8 515.49 173.06 515.49 170.21C515.49 167.36 513.54 165.56 510.84 165.56H504.93V174.8ZM524.592 176V155H525.882V171.47C525.882 172.52 525.732 174.11 525.732 174.11H525.792C525.792 174.11 526.932 172.34 527.622 171.38L539.472 155H540.672V176H539.382V159.53C539.382 158.48 539.532 156.89 539.532 156.89H539.472C539.472 156.89 538.422 158.57 537.732 159.53L525.792 176H524.592ZM547.362 176L553.812 164.96V164.9L547.782 155H549.282L554.922 164.36H558.222V155H559.512V164.36H562.812L568.452 155H569.952L563.922 164.9V164.96L570.372 176H568.872L562.812 165.56H559.512V176H558.222V165.56H554.922L548.862 176H547.362ZM577.072 176V155H578.362V171.47C578.362 172.52 578.212 174.11 578.212 174.11H578.272C578.272 174.11 579.412 172.34 580.102 171.38L591.952 155H593.152V176H591.862V159.53C591.862 158.48 592.012 156.89 592.012 156.89H591.952C591.952 156.89 590.902 158.57 590.212 159.53L578.272 176H577.072ZM601.462 176L603.142 155H604.402L610.522 168.2C611.002 169.22 611.542 170.57 611.542 170.57H611.602C611.602 170.57 612.142 169.22 612.622 168.2L618.742 155H620.002L621.682 176H620.392L619.102 159.98C619.012 158.96 619.012 157.19 619.012 157.19H618.952C618.952 157.19 618.352 158.96 617.872 159.98L612.232 171.95H610.912L605.302 159.98C604.852 158.99 604.192 157.13 604.192 157.13H604.132C604.132 157.13 604.132 158.96 604.042 159.98L602.752 176H601.462ZM628.552 165.35C628.552 159.32 633.322 154.64 639.172 154.64C645.022 154.64 649.792 159.32 649.792 165.35C649.792 171.53 645.022 176.36 639.172 176.36C633.322 176.36 628.552 171.53 628.552 165.35ZM629.902 165.35C629.902 170.87 634.042 175.13 639.172 175.13C644.302 175.13 648.442 170.87 648.442 165.35C648.442 159.98 644.302 155.87 639.172 155.87C634.042 155.87 629.902 159.98 629.902 165.35ZM656.067 165.35C656.067 159.26 660.387 154.64 666.477 154.64C669.117 154.64 671.997 155.42 673.977 157.28L673.197 158.24C671.487 156.71 668.877 155.87 666.507 155.87C661.167 155.87 657.417 159.92 657.417 165.35C657.417 170.81 661.137 175.13 666.597 175.13C669.177 175.13 671.817 174.14 673.707 172.28L674.517 173.18C672.777 174.86 670.257 176.36 666.597 176.36C660.297 176.36 656.067 171.44 656.067 165.35ZM686.899 176V156.2H679.069V155H696.019V156.2H688.189V176H686.899ZM702.457 176V155H703.747V171.47C703.747 172.52 703.597 174.11 703.597 174.11H703.657C703.657 174.11 704.797 172.34 705.487 171.38L717.337 155H718.537V176H717.247V159.53C717.247 158.48 717.397 156.89 717.397 156.89H717.337C717.337 156.89 716.287 158.57 715.597 159.53L703.657 176H702.457Z" fill="black"/>
<path d="M227.81 176L226.873 175.649L226.368 177H227.81V176ZM235.67 155V154H234.977L234.733 154.649L235.67 155ZM237.05 155L237.987 154.649L237.743 154H237.05V155ZM244.91 176V177H246.352L245.847 175.649L244.91 176ZM243.53 176L242.594 176.352L242.838 177H243.53V176ZM240.8 168.74L241.736 168.388L241.492 167.74H240.8V168.74ZM231.89 168.74V167.74H231.195L230.953 168.391L231.89 168.74ZM229.19 176V177H229.885L230.127 176.349L229.19 176ZM232.34 167.54L231.404 167.187L230.895 168.54H232.34V167.54ZM240.35 167.54V168.54H241.791L241.287 167.19L240.35 167.54ZM237.17 159.02L236.231 159.364L236.233 159.37L237.17 159.02ZM236.39 156.5L237.354 156.232L237.15 155.5H236.39V156.5ZM236.33 156.5V155.5H235.57L235.366 156.232L236.33 156.5ZM235.55 159.02L236.486 159.373L236.489 159.364L235.55 159.02ZM227.81 176L228.747 176.351L236.607 155.351L235.67 155L234.733 154.649L226.873 175.649L227.81 176ZM235.67 155V156H237.05V155V154H235.67V155ZM237.05 155L236.113 155.351L243.973 176.351L244.91 176L245.847 175.649L237.987 154.649L237.05 155ZM244.91 176V175H243.53V176V177H244.91V176ZM243.53 176L244.466 175.648L241.736 168.388L240.8 168.74L239.864 169.092L242.594 176.352L243.53 176ZM240.8 168.74V167.74H231.89V168.74V169.74H240.8V168.74ZM231.89 168.74L230.953 168.391L228.253 175.651L229.19 176L230.127 176.349L232.827 169.089L231.89 168.74ZM229.19 176V175H227.81V176V177H229.19V176ZM232.34 167.54V168.54H240.35V167.54V166.54H232.34V167.54ZM240.35 167.54L241.287 167.19L238.107 158.67L237.17 159.02L236.233 159.37L239.413 167.89L240.35 167.54ZM237.17 159.02L238.109 158.676C237.956 158.258 237.768 157.654 237.615 157.138C237.539 156.883 237.474 156.656 237.427 156.493C237.404 156.411 237.385 156.346 237.373 156.301C237.366 156.278 237.361 156.261 237.358 156.249C237.357 156.244 237.355 156.239 237.355 156.236C237.354 156.235 237.354 156.234 237.354 156.233C237.354 156.233 237.354 156.233 237.354 156.232C237.354 156.232 237.354 156.232 237.354 156.232C237.354 156.232 237.354 156.232 237.354 156.232C237.354 156.232 237.354 156.232 236.39 156.5C235.426 156.768 235.426 156.768 235.426 156.768C235.427 156.768 235.427 156.768 235.427 156.768C235.427 156.768 235.427 156.768 235.427 156.768C235.427 156.768 235.427 156.769 235.427 156.769C235.427 156.77 235.428 156.771 235.428 156.773C235.429 156.776 235.43 156.781 235.432 156.788C235.436 156.8 235.441 156.818 235.447 156.842C235.461 156.889 235.48 156.957 235.504 157.042C235.552 157.21 235.62 157.444 235.698 157.707C235.852 158.226 236.054 158.882 236.231 159.364L237.17 159.02ZM236.39 156.5V155.5H236.33V156.5V157.5H236.39V156.5ZM236.33 156.5C235.366 156.232 235.366 156.232 235.366 156.232C235.366 156.232 235.366 156.232 235.366 156.232C235.366 156.232 235.366 156.232 235.366 156.232C235.366 156.233 235.366 156.233 235.366 156.233C235.366 156.234 235.366 156.235 235.365 156.236C235.365 156.239 235.363 156.244 235.362 156.249C235.359 156.261 235.354 156.278 235.347 156.301C235.335 156.346 235.316 156.411 235.293 156.493C235.246 156.656 235.181 156.883 235.105 157.138C234.952 157.654 234.764 158.258 234.611 158.676L235.55 159.02L236.489 159.364C236.666 158.882 236.868 158.226 237.022 157.707C237.1 157.444 237.168 157.21 237.216 157.042C237.24 156.957 237.259 156.889 237.273 156.842C237.279 156.818 237.284 156.8 237.288 156.788C237.29 156.781 237.291 156.776 237.292 156.773C237.292 156.771 237.293 156.77 237.293 156.769C237.293 156.769 237.293 156.768 237.293 156.768C237.293 156.768 237.293 156.768 237.293 156.768C237.293 156.768 237.293 156.768 237.294 156.768C237.294 156.768 237.294 156.768 236.33 156.5ZM235.55 159.02L234.614 158.667L231.404 167.187L232.34 167.54L233.276 167.893L236.486 159.373L235.55 159.02ZM251.631 176H250.631V177H251.631V176ZM251.631 155V154H250.631V155H251.631ZM262.221 155H263.221V154H262.221V155ZM262.221 156.2V157.2H263.221V156.2H262.221ZM252.921 156.2V155.2H251.921V156.2H252.921ZM252.921 176V177H253.921V176H252.921ZM251.631 176H252.631V155H251.631H250.631V176H251.631ZM251.631 155V156H262.221V155V154H251.631V155ZM262.221 155H261.221V156.2H262.221H263.221V155H262.221ZM262.221 156.2V155.2H252.921V156.2V157.2H262.221V156.2ZM252.921 156.2H251.921V176H252.921H253.921V156.2H252.921ZM252.921 176V175H251.631V176V177H252.921V176ZM268.598 176H267.598V177H268.598V176ZM268.598 155V154H267.598V155H268.598ZM280.088 155H281.088V154H280.088V155ZM280.088 156.2V157.2H281.088V156.2H280.088ZM269.888 156.2V155.2H268.888V156.2H269.888ZM269.888 164.81H268.888V165.81H269.888V164.81ZM278.258 164.81H279.258V163.81H278.258V164.81ZM278.258 166.01V167.01H279.258V166.01H278.258ZM269.888 166.01V165.01H268.888V166.01H269.888ZM269.888 174.8H268.888V175.8H269.888V174.8ZM280.658 174.8H281.658V173.8H280.658V174.8ZM280.658 176V177H281.658V176H280.658ZM268.598 176H269.598V155H268.598H267.598V176H268.598ZM268.598 155V156H280.088V155V154H268.598V155ZM280.088 155H279.088V156.2H280.088H281.088V155H280.088ZM280.088 156.2V155.2H269.888V156.2V157.2H280.088V156.2ZM269.888 156.2H268.888V164.81H269.888H270.888V156.2H269.888ZM269.888 164.81V165.81H278.258V164.81V163.81H269.888V164.81ZM278.258 164.81H277.258V166.01H278.258H279.258V164.81H278.258ZM278.258 166.01V165.01H269.888V166.01V167.01H278.258V166.01ZM269.888 166.01H268.888V174.8H269.888H270.888V166.01H269.888ZM269.888 174.8V175.8H280.658V174.8V173.8H269.888V174.8ZM280.658 174.8H279.658V176H280.658H281.658V174.8H280.658ZM280.658 176V175H268.598V176V177H280.658V176ZM287.968 176H286.968V177H287.968V176ZM287.968 155V154H286.968V155H287.968ZM289.258 155H290.258V154H289.258V155ZM289.258 164.87H288.258V165.87H289.258V164.87ZM302.578 164.87V165.87H303.578V164.87H302.578ZM302.578 155V154H301.578V155H302.578ZM303.868 155H304.868V154H303.868V155ZM303.868 176V177H304.868V176H303.868ZM302.578 176H301.578V177H302.578V176ZM302.578 166.07H303.578V165.07H302.578V166.07ZM289.258 166.07V165.07H288.258V166.07H289.258ZM289.258 176V177H290.258V176H289.258ZM287.968 176H288.968V155H287.968H286.968V176H287.968ZM287.968 155V156H289.258V155V154H287.968V155ZM289.258 155H288.258V164.87H289.258H290.258V155H289.258ZM289.258 164.87V165.87H302.578V164.87V163.87H289.258V164.87ZM302.578 164.87H303.578V155H302.578H301.578V164.87H302.578ZM302.578 155V156H303.868V155V154H302.578V155ZM303.868 155H302.868V176H303.868H304.868V155H303.868ZM303.868 176V175H302.578V176V177H303.868V176ZM302.578 176H303.578V166.07H302.578H301.578V176H302.578ZM302.578 166.07V165.07H289.258V166.07V167.07H302.578V166.07ZM289.258 166.07H288.258V176H289.258H290.258V166.07H289.258ZM289.258 176V175H287.968V176V177H289.258V176ZM318.152 176H317.152V177H318.152V176ZM318.152 156.2H319.152V155.2H318.152V156.2ZM310.322 156.2H309.322V157.2H310.322V156.2ZM310.322 155V154H309.322V155H310.322ZM327.272 155H328.272V154H327.272V155ZM327.272 156.2V157.2H328.272V156.2H327.272ZM319.442 156.2V155.2H318.442V156.2H319.442ZM319.442 176V177H320.442V176H319.442ZM318.152 176H319.152V156.2H318.152H317.152V176H318.152ZM318.152 156.2V155.2H310.322V156.2V157.2H318.152V156.2ZM310.322 156.2H311.322V155H310.322H309.322V156.2H310.322ZM310.322 155V156H327.272V155V154H310.322V155ZM327.272 155H326.272V156.2H327.272H328.272V155H327.272ZM327.272 156.2V155.2H319.442V156.2V157.2H327.272V156.2ZM319.442 156.2H318.442V176H319.442H320.442V156.2H319.442ZM319.442 176V175H318.152V176V177H319.442V176ZM348.98 157.28L349.756 157.911L350.342 157.188L349.664 156.551L348.98 157.28ZM348.2 158.24L347.533 158.985L348.314 159.685L348.976 158.871L348.2 158.24ZM348.71 172.28L349.453 171.611L348.753 170.834L348.008 171.567L348.71 172.28ZM349.52 173.18L350.214 173.899L350.909 173.229L350.263 172.511L349.52 173.18ZM331.07 165.35H332.07C332.07 159.774 335.979 155.64 341.48 155.64V154.64V153.64C334.8 153.64 330.07 158.746 330.07 165.35H331.07ZM341.48 154.64V155.64C343.956 155.64 346.557 156.376 348.295 158.009L348.98 157.28L349.664 156.551C347.442 154.464 344.283 153.64 341.48 153.64V154.64ZM348.98 157.28L348.203 156.649L347.423 157.609L348.2 158.24L348.976 158.871L349.756 157.911L348.98 157.28ZM348.2 158.24L348.866 157.495C346.94 155.771 344.077 154.87 341.51 154.87V155.87V156.87C343.682 156.87 346.039 157.649 347.533 158.985L348.2 158.24ZM341.51 155.87V154.87C335.569 154.87 331.42 159.418 331.42 165.35H332.42H333.42C333.42 160.422 336.77 156.87 341.51 156.87V155.87ZM332.42 165.35H331.42C331.42 171.277 335.505 176.13 341.6 176.13V175.13V174.13C336.774 174.13 333.42 170.343 333.42 165.35H332.42ZM341.6 175.13V176.13C344.422 176.13 347.32 175.05 349.411 172.993L348.71 172.28L348.008 171.567C346.319 173.23 343.937 174.13 341.6 174.13V175.13ZM348.71 172.28L347.966 172.949L348.776 173.849L349.52 173.18L350.263 172.511L349.453 171.611L348.71 172.28ZM349.52 173.18L348.825 172.461C347.231 174 344.949 175.36 341.6 175.36V176.36V177.36C345.57 177.36 348.328 175.72 350.214 173.899L349.52 173.18ZM341.6 176.36V175.36C335.922 175.36 332.07 170.961 332.07 165.35H331.07H330.07C330.07 171.919 334.677 177.36 341.6 177.36V176.36ZM361.902 176H360.902V177H361.902V176ZM361.902 156.2H362.902V155.2H361.902V156.2ZM354.072 156.2H353.072V157.2H354.072V156.2ZM354.072 155V154H353.072V155H354.072ZM371.022 155H372.022V154H371.022V155ZM371.022 156.2V157.2H372.022V156.2H371.022ZM363.192 156.2V155.2H362.192V156.2H363.192ZM363.192 176V177H364.192V176H363.192ZM361.902 176H362.902V156.2H361.902H360.902V176H361.902ZM361.902 156.2V155.2H354.072V156.2V157.2H361.902V156.2ZM354.072 156.2H355.072V155H354.072H353.072V156.2H354.072ZM354.072 155V156H371.022V155V154H354.072V155ZM371.022 155H370.022V156.2H371.022H372.022V155H371.022ZM371.022 156.2V155.2H363.192V156.2V157.2H371.022V156.2ZM363.192 156.2H362.192V176H363.192H364.192V156.2H363.192ZM363.192 176V175H361.902V176V177H363.192V176ZM377.46 176H376.46V177H377.46V176ZM377.46 155V154H376.46V155H377.46ZM387.09 164.84L386.656 163.939L386.09 164.212V164.84H387.09ZM387.09 164.9H386.09V165.662L386.824 165.864L387.09 164.9ZM378.75 164.36H377.75V165.36H378.75V164.36ZM378.75 156.2V155.2H377.75V156.2H378.75ZM378.75 174.8H377.75V175.8H378.75V174.8ZM378.75 165.56V164.56H377.75V165.56H378.75ZM377.46 176H378.46V155H377.46H376.46V176H377.46ZM377.46 155V156H384.51V155V154H377.46V155ZM384.51 155V156C385.816 156 386.883 156.432 387.618 157.141C388.348 157.845 388.82 158.888 388.82 160.25H389.82H390.82C390.82 158.402 390.166 156.82 389.006 155.701C387.851 154.588 386.264 154 384.51 154V155ZM389.82 160.25H388.82C388.82 162.147 387.929 163.326 386.656 163.939L387.09 164.84L387.523 165.741C389.491 164.794 390.82 162.913 390.82 160.25H389.82ZM387.09 164.84H386.09V164.9H387.09H388.09V164.84H387.09ZM387.09 164.9L386.824 165.864C388.386 166.294 389.66 167.878 389.66 170.21H390.66H391.66C391.66 167.141 389.933 164.646 387.355 163.936L387.09 164.9ZM390.66 170.21H389.66C389.66 171.719 389.13 172.899 388.299 173.703C387.464 174.511 386.261 175 384.81 175V176V177C386.718 177 388.44 176.349 389.69 175.14C390.944 173.926 391.66 172.211 391.66 170.21H390.66ZM384.81 176V175H377.46V176V177H384.81V176ZM378.75 164.36V165.36H384.48V164.36V163.36H378.75V164.36ZM384.48 164.36V165.36C385.886 165.36 387.151 164.869 388.065 163.94C388.978 163.012 389.47 161.721 389.47 160.25H388.47H387.47C387.47 161.269 387.136 162.033 386.639 162.537C386.143 163.041 385.413 163.36 384.48 163.36V164.36ZM388.47 160.25H389.47C389.47 158.806 389.008 157.524 388.093 156.599C387.177 155.673 385.9 155.2 384.45 155.2V156.2V157.2C385.46 157.2 386.192 157.522 386.671 158.006C387.151 158.491 387.47 159.234 387.47 160.25H388.47ZM384.45 156.2V155.2H378.75V156.2V157.2H384.45V156.2ZM378.75 156.2H377.75V164.36H378.75H379.75V156.2H378.75ZM378.75 174.8V175.8H384.69V174.8V173.8H378.75V174.8ZM384.69 174.8V175.8C386.306 175.8 387.733 175.297 388.759 174.286C389.787 173.272 390.31 171.849 390.31 170.21H389.31H388.31C388.31 171.421 387.932 172.293 387.355 172.862C386.776 173.433 385.893 173.8 384.69 173.8V174.8ZM389.31 170.21H390.31C390.31 168.549 389.736 167.117 388.696 166.101C387.66 165.088 386.234 164.56 384.66 164.56V165.56V166.56C385.785 166.56 386.685 166.932 387.298 167.531C387.908 168.128 388.31 169.021 388.31 170.21H389.31ZM384.66 165.56V164.56H378.75V165.56V166.56H384.66V165.56ZM378.75 165.56H377.75V174.8H378.75H379.75V165.56H378.75ZM396.972 165.35H397.972C397.972 159.872 402.294 155.64 407.592 155.64V154.64V153.64C401.189 153.64 395.972 158.768 395.972 165.35H396.972ZM407.592 154.64V155.64C412.889 155.64 417.212 159.872 417.212 165.35H418.212H419.212C419.212 158.768 413.994 153.64 407.592 153.64V154.64ZM418.212 165.35H417.212C417.212 171.005 412.862 175.36 407.592 175.36V176.36V177.36C414.021 177.36 419.212 172.055 419.212 165.35H418.212ZM407.592 176.36V175.36C402.321 175.36 397.972 171.005 397.972 165.35H396.972H395.972C395.972 172.055 401.162 177.36 407.592 177.36V176.36ZM398.322 165.35H397.322C397.322 171.379 401.867 176.13 407.592 176.13V175.13V174.13C403.057 174.13 399.322 170.361 399.322 165.35H398.322ZM407.592 175.13V176.13C413.317 176.13 417.862 171.379 417.862 165.35H416.862H415.862C415.862 170.361 412.127 174.13 407.592 174.13V175.13ZM416.862 165.35H417.862C417.862 159.44 413.286 154.87 407.592 154.87V155.87V156.87C412.157 156.87 415.862 160.52 415.862 165.35H416.862ZM407.592 155.87V154.87C401.897 154.87 397.322 159.44 397.322 165.35H398.322H399.322C399.322 160.52 403.026 156.87 407.592 156.87V155.87ZM436.097 176H435.097V177H436.097V176ZM436.097 155V154H435.097V155H436.097ZM437.387 155H438.387V154H437.387V155ZM437.387 164.87H436.387V165.87H437.387V164.87ZM450.707 164.87V165.87H451.707V164.87H450.707ZM450.707 155V154H449.707V155H450.707ZM451.997 155H452.997V154H451.997V155ZM451.997 176V177H452.997V176H451.997ZM450.707 176H449.707V177H450.707V176ZM450.707 166.07H451.707V165.07H450.707V166.07ZM437.387 166.07V165.07H436.387V166.07H437.387ZM437.387 176V177H438.387V176H437.387ZM436.097 176H437.097V155H436.097H435.097V176H436.097ZM436.097 155V156H437.387V155V154H436.097V155ZM437.387 155H436.387V164.87H437.387H438.387V155H437.387ZM437.387 164.87V165.87H450.707V164.87V163.87H437.387V164.87ZM450.707 164.87H451.707V155H450.707H449.707V164.87H450.707ZM450.707 155V156H451.997V155V154H450.707V155ZM451.997 155H450.997V176H451.997H452.997V155H451.997ZM451.997 176V175H450.707V176V177H451.997V176ZM450.707 176H451.707V166.07H450.707H449.707V176H450.707ZM450.707 166.07V165.07H437.387V166.07V167.07H450.707V166.07ZM437.387 166.07H436.387V176H437.387H438.387V166.07H437.387ZM437.387 176V175H436.097V176V177H437.387V176ZM461.121 176H460.121V177H461.121V176ZM461.121 155V154H460.121V155H461.121ZM472.611 155H473.611V154H472.611V155ZM472.611 156.2V157.2H473.611V156.2H472.611ZM462.411 156.2V155.2H461.411V156.2H462.411ZM462.411 164.81H461.411V165.81H462.411V164.81ZM470.781 164.81H471.781V163.81H470.781V164.81ZM470.781 166.01V167.01H471.781V166.01H470.781ZM462.411 166.01V165.01H461.411V166.01H462.411ZM462.411 174.8H461.411V175.8H462.411V174.8ZM473.181 174.8H474.181V173.8H473.181V174.8ZM473.181 176V177H474.181V176H473.181ZM461.121 176H462.121V155H461.121H460.121V176H461.121ZM461.121 155V156H472.611V155V154H461.121V155ZM472.611 155H471.611V156.2H472.611H473.611V155H472.611ZM472.611 156.2V155.2H462.411V156.2V157.2H472.611V156.2ZM462.411 156.2H461.411V164.81H462.411H463.411V156.2H462.411ZM462.411 164.81V165.81H470.781V164.81V163.81H462.411V164.81ZM470.781 164.81H469.781V166.01H470.781H471.781V164.81H470.781ZM470.781 166.01V165.01H462.411V166.01V167.01H470.781V166.01ZM462.411 166.01H461.411V174.8H462.411H463.411V166.01H462.411ZM462.411 174.8V175.8H473.181V174.8V173.8H462.411V174.8ZM473.181 174.8H472.181V176H473.181H474.181V174.8H473.181ZM473.181 176V175H461.121V176V177H473.181V176ZM480.971 174.8L480.16 174.215L479.016 175.8H480.971V174.8ZM492.791 174.8V175.8H493.791V174.8H492.791ZM492.791 156.2H493.791V155.2H492.791V156.2ZM484.481 156.2V155.2H483.481V156.2H484.481ZM477.401 174.8V173.8H476.401V174.8H477.401ZM479.501 174.8V175.8H479.986L480.286 175.419L479.501 174.8ZM483.221 155V154H482.221V155H483.221ZM494.081 155H495.081V154H494.081V155ZM494.081 174.8H493.081V175.8H494.081V174.8ZM496.421 174.8H497.421V173.8H496.421V174.8ZM496.421 180.2V181.2H497.421V180.2H496.421ZM495.161 180.2H494.161V181.2H495.161V180.2ZM495.161 176H496.161V175H495.161V176ZM478.691 176V175H477.691V176H478.691ZM478.691 180.2V181.2H479.691V180.2H478.691ZM477.401 180.2H476.401V181.2H477.401V180.2ZM480.971 174.8V175.8H492.791V174.8V173.8H480.971V174.8ZM492.791 174.8H493.791V156.2H492.791H491.791V174.8H492.791ZM492.791 156.2V155.2H484.481V156.2V157.2H492.791V156.2ZM484.481 156.2H483.481V158.84H484.481H485.481V156.2H484.481ZM484.481 158.84H483.481C483.481 164.377 482.98 170.306 480.16 174.215L480.971 174.8L481.782 175.385C485.022 170.894 485.481 164.343 485.481 158.84H484.481ZM477.401 174.8V175.8H479.501V174.8V173.8H477.401V174.8ZM479.501 174.8L480.286 175.419C483.981 170.728 484.221 163.954 484.221 158.87H483.221H482.221C482.221 164.046 481.921 170.112 478.715 174.181L479.501 174.8ZM483.221 158.87H484.221V155H483.221H482.221V158.87H483.221ZM483.221 155V156H494.081V155V154H483.221V155ZM494.081 155H493.081V174.8H494.081H495.081V155H494.081ZM494.081 174.8V175.8H496.421V174.8V173.8H494.081V174.8ZM496.421 174.8H495.421V180.2H496.421H497.421V174.8H496.421ZM496.421 180.2V179.2H495.161V180.2V181.2H496.421V180.2ZM495.161 180.2H496.161V176H495.161H494.161V180.2H495.161ZM495.161 176V175H478.691V176V177H495.161V176ZM478.691 176H477.691V180.2H478.691H479.691V176H478.691ZM478.691 180.2V179.2H477.401V180.2V181.2H478.691V180.2ZM477.401 180.2H478.401V174.8H477.401H476.401V180.2H477.401ZM503.64 176H502.64V177H503.64V176ZM503.64 155V154H502.64V155H503.64ZM513.27 164.84L512.836 163.939L512.27 164.212V164.84H513.27ZM513.27 164.9H512.27V165.662L513.005 165.864L513.27 164.9ZM504.93 164.36H503.93V165.36H504.93V164.36ZM504.93 156.2V155.2H503.93V156.2H504.93ZM504.93 174.8H503.93V175.8H504.93V174.8ZM504.93 165.56V164.56H503.93V165.56H504.93ZM503.64 176H504.64V155H503.64H502.64V176H503.64ZM503.64 155V156H510.69V155V154H503.64V155ZM510.69 155V156C511.996 156 513.064 156.432 513.798 157.141C514.529 157.845 515 158.888 515 160.25H516H517C517 158.402 516.347 156.82 515.187 155.701C514.032 154.588 512.444 154 510.69 154V155ZM516 160.25H515C515 162.147 514.109 163.326 512.836 163.939L513.27 164.84L513.704 165.741C515.671 164.794 517 162.913 517 160.25H516ZM513.27 164.84H512.27V164.9H513.27H514.27V164.84H513.27ZM513.27 164.9L513.005 165.864C514.567 166.294 515.84 167.878 515.84 170.21H516.84H517.84C517.84 167.141 516.113 164.646 513.536 163.936L513.27 164.9ZM516.84 170.21H515.84C515.84 171.719 515.31 172.899 514.48 173.703C513.645 174.511 512.441 175 510.99 175V176V177C512.899 177 514.62 176.349 515.87 175.14C517.125 173.926 517.84 172.211 517.84 170.21H516.84ZM510.99 176V175H503.64V176V177H510.99V176ZM504.93 164.36V165.36H510.66V164.36V163.36H504.93V164.36ZM510.66 164.36V165.36C512.067 165.36 513.332 164.869 514.245 163.94C515.159 163.012 515.65 161.721 515.65 160.25H514.65H513.65C513.65 161.269 513.317 162.033 512.82 162.537C512.324 163.041 511.593 163.36 510.66 163.36V164.36ZM514.65 160.25H515.65C515.65 158.806 515.188 157.524 514.273 156.599C513.357 155.673 512.08 155.2 510.63 155.2V156.2V157.2C511.64 157.2 512.373 157.522 512.852 158.006C513.332 158.491 513.65 159.234 513.65 160.25H514.65ZM510.63 156.2V155.2H504.93V156.2V157.2H510.63V156.2ZM504.93 156.2H503.93V164.36H504.93H505.93V156.2H504.93ZM504.93 174.8V175.8H510.87V174.8V173.8H504.93V174.8ZM510.87 174.8V175.8C512.487 175.8 513.914 175.297 514.94 174.286C515.968 173.272 516.49 171.849 516.49 170.21H515.49H514.49C514.49 171.421 514.113 172.293 513.535 172.862C512.956 173.433 512.073 173.8 510.87 173.8V174.8ZM515.49 170.21H516.49C516.49 168.549 515.916 167.117 514.877 166.101C513.84 165.088 512.415 164.56 510.84 164.56V165.56V166.56C511.965 166.56 512.865 166.932 513.479 167.531C514.089 168.128 514.49 169.021 514.49 170.21H515.49ZM510.84 165.56V164.56H504.93V165.56V166.56H510.84V165.56ZM504.93 165.56H503.93V174.8H504.93H505.93V165.56H504.93ZM524.592 176H523.592V177H524.592V176ZM524.592 155V154H523.592V155H524.592ZM525.882 155H526.882V154H525.882V155ZM525.732 174.11L524.736 174.016L524.633 175.11H525.732V174.11ZM525.792 174.11V175.11H526.337L526.633 174.651L525.792 174.11ZM527.622 171.38L526.812 170.794L526.81 170.796L527.622 171.38ZM539.472 155V154H538.961L538.662 154.414L539.472 155ZM540.672 155H541.672V154H540.672V155ZM540.672 176V177H541.672V176H540.672ZM539.382 176H538.382V177H539.382V176ZM539.532 156.89L540.528 156.984L540.631 155.89H539.532V156.89ZM539.472 156.89V155.89H538.918L538.624 156.36L539.472 156.89ZM537.732 159.53L538.542 160.117L538.544 160.114L537.732 159.53ZM525.792 176V177H526.302L526.602 176.587L525.792 176ZM524.592 176H525.592V155H524.592H523.592V176H524.592ZM524.592 155V156H525.882V155V154H524.592V155ZM525.882 155H524.882V171.47H525.882H526.882V155H525.882ZM525.882 171.47H524.882C524.882 171.958 524.847 172.589 524.81 173.113C524.791 173.372 524.773 173.599 524.759 173.76C524.752 173.841 524.746 173.906 524.742 173.95C524.741 173.972 524.739 173.989 524.738 174C524.737 174.006 524.737 174.01 524.737 174.012C524.737 174.014 524.737 174.015 524.737 174.015C524.736 174.016 524.736 174.016 524.736 174.016C524.736 174.016 524.736 174.016 524.736 174.016C524.736 174.016 524.736 174.016 524.736 174.016C524.736 174.016 524.736 174.016 525.732 174.11C526.728 174.204 526.728 174.204 526.728 174.204C526.728 174.204 526.728 174.204 526.728 174.204C526.728 174.204 526.728 174.204 526.728 174.203C526.728 174.203 526.728 174.203 526.728 174.202C526.728 174.201 526.728 174.2 526.728 174.198C526.728 174.195 526.729 174.19 526.729 174.184C526.731 174.171 526.732 174.153 526.734 174.129C526.739 174.082 526.745 174.014 526.752 173.93C526.766 173.761 526.785 173.525 526.805 173.254C526.842 172.721 526.882 172.032 526.882 171.47H525.882ZM525.732 174.11V175.11H525.792V174.11V173.11H525.732V174.11ZM525.792 174.11C526.633 174.651 526.633 174.651 526.633 174.651C526.633 174.651 526.633 174.651 526.633 174.651C526.633 174.651 526.633 174.651 526.633 174.651C526.633 174.651 526.633 174.651 526.633 174.65C526.634 174.65 526.635 174.648 526.636 174.647C526.638 174.644 526.641 174.639 526.645 174.632C526.654 174.619 526.666 174.6 526.682 174.575C526.714 174.526 526.761 174.453 526.819 174.364C526.936 174.184 527.099 173.935 527.283 173.656C527.654 173.094 528.102 172.426 528.434 171.964L527.622 171.38L526.81 170.796C526.452 171.294 525.985 171.991 525.614 172.554C525.426 172.838 525.261 173.091 525.143 173.273C525.083 173.365 525.036 173.438 525.003 173.489C524.986 173.514 524.973 173.534 524.965 173.548C524.96 173.554 524.957 173.56 524.955 173.563C524.954 173.565 524.953 173.566 524.952 173.567C524.952 173.568 524.952 173.568 524.952 173.568C524.951 173.568 524.951 173.568 524.951 173.568C524.951 173.568 524.951 173.568 524.951 173.568C524.951 173.569 524.951 173.569 525.792 174.11ZM527.622 171.38L528.432 171.966L540.282 155.586L539.472 155L538.662 154.414L526.812 170.794L527.622 171.38ZM539.472 155V156H540.672V155V154H539.472V155ZM540.672 155H539.672V176H540.672H541.672V155H540.672ZM540.672 176V175H539.382V176V177H540.672V176ZM539.382 176H540.382V159.53H539.382H538.382V176H539.382ZM539.382 159.53H540.382C540.382 159.042 540.417 158.411 540.455 157.887C540.473 157.628 540.491 157.401 540.505 157.24C540.512 157.159 540.518 157.094 540.522 157.05C540.524 157.028 540.525 157.011 540.526 157C540.527 156.994 540.527 156.99 540.527 156.988C540.527 156.986 540.527 156.985 540.528 156.985C540.528 156.984 540.528 156.984 540.528 156.984C540.528 156.984 540.528 156.984 540.528 156.984C540.528 156.984 540.528 156.984 540.528 156.984C540.528 156.984 540.528 156.984 539.532 156.89C538.536 156.796 538.536 156.796 538.536 156.796C538.536 156.796 538.536 156.796 538.536 156.796C538.536 156.796 538.536 156.796 538.536 156.797C538.536 156.797 538.536 156.797 538.536 156.798C538.536 156.799 538.536 156.8 538.536 156.802C538.536 156.805 538.535 156.81 538.535 156.816C538.533 156.829 538.532 156.847 538.53 156.871C538.525 156.918 538.519 156.986 538.512 157.07C538.498 157.239 538.479 157.475 538.46 157.746C538.422 158.279 538.382 158.968 538.382 159.53H539.382ZM539.532 156.89V155.89H539.472V156.89V157.89H539.532V156.89ZM539.472 156.89C538.624 156.36 538.624 156.36 538.624 156.36C538.624 156.36 538.624 156.36 538.624 156.36C538.624 156.36 538.624 156.36 538.624 156.36C538.624 156.36 538.624 156.361 538.623 156.361C538.623 156.362 538.622 156.363 538.621 156.364C538.619 156.367 538.617 156.372 538.613 156.378C538.605 156.39 538.594 156.408 538.579 156.432C538.549 156.479 538.506 156.547 538.452 156.633C538.344 156.803 538.193 157.041 538.021 157.307C537.673 157.846 537.249 158.488 536.92 158.946L537.732 159.53L538.544 160.114C538.905 159.612 539.351 158.934 539.701 158.393C539.877 158.119 540.032 157.877 540.142 157.702C540.197 157.615 540.242 157.545 540.272 157.496C540.287 157.472 540.299 157.453 540.307 157.44C540.311 157.434 540.315 157.429 540.317 157.425C540.318 157.424 540.319 157.422 540.319 157.421C540.319 157.421 540.32 157.421 540.32 157.42C540.32 157.42 540.32 157.42 540.32 157.42C540.32 157.42 540.32 157.42 540.32 157.42C540.32 157.42 540.32 157.42 539.472 156.89ZM537.732 159.53L536.922 158.943L524.982 175.413L525.792 176L526.602 176.587L538.542 160.117L537.732 159.53ZM525.792 176V175H524.592V176V177H525.792V176ZM547.362 176L546.499 175.496L545.62 177H547.362V176ZM553.812 164.96L554.675 165.464L554.812 165.231V164.96H553.812ZM553.812 164.9H554.812V164.619L554.666 164.38L553.812 164.9ZM547.782 155V154H546.002L546.928 155.52L547.782 155ZM549.282 155L550.139 154.484L549.847 154H549.282V155ZM554.922 164.36L554.066 164.876L554.357 165.36H554.922V164.36ZM558.222 164.36V165.36H559.222V164.36H558.222ZM558.222 155V154H557.222V155H558.222ZM559.512 155H560.512V154H559.512V155ZM559.512 164.36H558.512V165.36H559.512V164.36ZM562.812 164.36V165.36H563.377L563.669 164.876L562.812 164.36ZM568.452 155V154H567.887L567.596 154.484L568.452 155ZM569.952 155L570.806 155.52L571.732 154H569.952V155ZM563.922 164.9L563.068 164.38L562.922 164.619V164.9H563.922ZM563.922 164.96H562.922V165.231L563.059 165.464L563.922 164.96ZM570.372 176V177H572.114L571.235 175.496L570.372 176ZM568.872 176L568.007 176.502L568.296 177H568.872V176ZM562.812 165.56L563.677 165.058L563.388 164.56H562.812V165.56ZM559.512 165.56V164.56H558.512V165.56H559.512ZM559.512 176V177H560.512V176H559.512ZM558.222 176H557.222V177H558.222V176ZM558.222 165.56H559.222V164.56H558.222V165.56ZM554.922 165.56V164.56H554.346L554.057 165.058L554.922 165.56ZM548.862 176V177H549.438L549.727 176.502L548.862 176ZM547.362 176L548.225 176.504L554.675 165.464L553.812 164.96L552.949 164.456L546.499 175.496L547.362 176ZM553.812 164.96H554.812V164.9H553.812H552.812V164.96H553.812ZM553.812 164.9L554.666 164.38L548.636 154.48L547.782 155L546.928 155.52L552.958 165.42L553.812 164.9ZM547.782 155V156H549.282V155V154H547.782V155ZM549.282 155L548.426 155.516L554.066 164.876L554.922 164.36L555.779 163.844L550.139 154.484L549.282 155ZM554.922 164.36V165.36H558.222V164.36V163.36H554.922V164.36ZM558.222 164.36H559.222V155H558.222H557.222V164.36H558.222ZM558.222 155V156H559.512V155V154H558.222V155ZM559.512 155H558.512V164.36H559.512H560.512V155H559.512ZM559.512 164.36V165.36H562.812V164.36V163.36H559.512V164.36ZM562.812 164.36L563.669 164.876L569.309 155.516L568.452 155L567.596 154.484L561.956 163.844L562.812 164.36ZM568.452 155V156H569.952V155V154H568.452V155ZM569.952 155L569.098 154.48L563.068 164.38L563.922 164.9L564.776 165.42L570.806 155.52L569.952 155ZM563.922 164.9H562.922V164.96H563.922H564.922V164.9H563.922ZM563.922 164.96L563.059 165.464L569.509 176.504L570.372 176L571.235 175.496L564.785 164.456L563.922 164.96ZM570.372 176V175H568.872V176V177H570.372V176ZM568.872 176L569.737 175.498L563.677 165.058L562.812 165.56L561.947 166.062L568.007 176.502L568.872 176ZM562.812 165.56V164.56H559.512V165.56V166.56H562.812V165.56ZM559.512 165.56H558.512V176H559.512H560.512V165.56H559.512ZM559.512 176V175H558.222V176V177H559.512V176ZM558.222 176H559.222V165.56H558.222H557.222V176H558.222ZM558.222 165.56V164.56H554.922V165.56V166.56H558.222V165.56ZM554.922 165.56L554.057 165.058L547.997 175.498L548.862 176L549.727 176.502L555.787 166.062L554.922 165.56ZM548.862 176V175H547.362V176V177H548.862V176ZM577.072 176H576.072V177H577.072V176ZM577.072 155V154H576.072V155H577.072ZM578.362 155H579.362V154H578.362V155ZM578.212 174.11L577.217 174.016L577.113 175.11H578.212V174.11ZM578.272 174.11V175.11H578.818L579.113 174.651L578.272 174.11ZM580.102 171.38L579.292 170.794L579.29 170.796L580.102 171.38ZM591.952 155V154H591.441L591.142 154.414L591.952 155ZM593.152 155H594.152V154H593.152V155ZM593.152 176V177H594.152V176H593.152ZM591.862 176H590.862V177H591.862V176ZM592.012 156.89L593.008 156.984L593.111 155.89H592.012V156.89ZM591.952 156.89V155.89H591.398L591.104 156.36L591.952 156.89ZM590.212 159.53L591.022 160.117L591.024 160.114L590.212 159.53ZM578.272 176V177H578.782L579.082 176.587L578.272 176ZM577.072 176H578.072V155H577.072H576.072V176H577.072ZM577.072 155V156H578.362V155V154H577.072V155ZM578.362 155H577.362V171.47H578.362H579.362V155H578.362ZM578.362 171.47H577.362C577.362 171.958 577.327 172.589 577.29 173.113C577.271 173.372 577.253 173.599 577.239 173.76C577.232 173.841 577.227 173.906 577.223 173.95C577.221 173.972 577.219 173.989 577.218 174C577.218 174.006 577.217 174.01 577.217 174.012C577.217 174.014 577.217 174.015 577.217 174.015C577.217 174.016 577.217 174.016 577.217 174.016C577.217 174.016 577.217 174.016 577.217 174.016C577.217 174.016 577.217 174.016 577.217 174.016C577.217 174.016 577.217 174.016 578.212 174.11C579.208 174.204 579.208 174.204 579.208 174.204C579.208 174.204 579.208 174.204 579.208 174.204C579.208 174.204 579.208 174.204 579.208 174.203C579.208 174.203 579.208 174.203 579.208 174.202C579.208 174.201 579.208 174.2 579.208 174.198C579.209 174.195 579.209 174.19 579.21 174.184C579.211 174.171 579.212 174.153 579.215 174.129C579.219 174.082 579.225 174.014 579.232 173.93C579.246 173.761 579.265 173.525 579.285 173.254C579.322 172.721 579.362 172.032 579.362 171.47H578.362ZM578.212 174.11V175.11H578.272V174.11V173.11H578.212V174.11ZM578.272 174.11C579.113 174.651 579.113 174.651 579.113 174.651C579.113 174.651 579.113 174.651 579.113 174.651C579.113 174.651 579.113 174.651 579.113 174.651C579.113 174.651 579.113 174.651 579.114 174.65C579.114 174.65 579.115 174.648 579.116 174.647C579.118 174.644 579.121 174.639 579.125 174.632C579.134 174.619 579.146 174.6 579.162 174.575C579.194 174.526 579.241 174.453 579.299 174.364C579.416 174.184 579.579 173.935 579.763 173.656C580.134 173.094 580.582 172.426 580.914 171.964L580.102 171.38L579.29 170.796C578.932 171.294 578.466 171.991 578.094 172.554C577.907 172.838 577.741 173.091 577.623 173.273C577.563 173.365 577.516 173.438 577.483 173.489C577.466 173.514 577.454 173.534 577.445 173.548C577.441 173.554 577.437 173.56 577.435 173.563C577.434 173.565 577.433 173.566 577.432 173.567C577.432 173.568 577.432 173.568 577.432 173.568C577.432 173.568 577.432 173.568 577.431 173.568C577.431 173.568 577.431 173.568 577.431 173.568C577.431 173.569 577.431 173.569 578.272 174.11ZM580.102 171.38L580.912 171.966L592.762 155.586L591.952 155L591.142 154.414L579.292 170.794L580.102 171.38ZM591.952 155V156H593.152V155V154H591.952V155ZM593.152 155H592.152V176H593.152H594.152V155H593.152ZM593.152 176V175H591.862V176V177H593.152V176ZM591.862 176H592.862V159.53H591.862H590.862V176H591.862ZM591.862 159.53H592.862C592.862 159.042 592.897 158.411 592.935 157.887C592.953 157.628 592.971 157.401 592.985 157.24C592.992 157.159 592.998 157.094 593.002 157.05C593.004 157.028 593.005 157.011 593.006 157C593.007 156.994 593.007 156.99 593.007 156.988C593.007 156.986 593.008 156.985 593.008 156.985C593.008 156.984 593.008 156.984 593.008 156.984C593.008 156.984 593.008 156.984 593.008 156.984C593.008 156.984 593.008 156.984 593.008 156.984C593.008 156.984 593.008 156.984 592.012 156.89C591.017 156.796 591.017 156.796 591.017 156.796C591.017 156.796 591.017 156.796 591.017 156.796C591.017 156.796 591.017 156.796 591.016 156.797C591.016 156.797 591.016 156.797 591.016 156.798C591.016 156.799 591.016 156.8 591.016 156.802C591.016 156.805 591.015 156.81 591.015 156.816C591.014 156.829 591.012 156.847 591.01 156.871C591.005 156.918 590.999 156.986 590.992 157.07C590.978 157.239 590.959 157.475 590.94 157.746C590.902 158.279 590.862 158.968 590.862 159.53H591.862ZM592.012 156.89V155.89H591.952V156.89V157.89H592.012V156.89ZM591.952 156.89C591.104 156.36 591.104 156.36 591.104 156.36C591.104 156.36 591.104 156.36 591.104 156.36C591.104 156.36 591.104 156.36 591.104 156.36C591.104 156.36 591.104 156.361 591.104 156.361C591.103 156.362 591.102 156.363 591.101 156.364C591.1 156.367 591.097 156.372 591.093 156.378C591.085 156.39 591.074 156.408 591.059 156.432C591.03 156.479 590.986 156.547 590.932 156.633C590.824 156.803 590.673 157.041 590.501 157.307C590.153 157.846 589.73 158.488 589.4 158.946L590.212 159.53L591.024 160.114C591.385 159.612 591.831 158.934 592.181 158.393C592.357 158.119 592.512 157.877 592.622 157.702C592.677 157.615 592.722 157.545 592.752 157.496C592.768 157.472 592.779 157.453 592.787 157.44C592.792 157.434 592.795 157.429 592.797 157.425C592.798 157.424 592.799 157.422 592.799 157.421C592.799 157.421 592.8 157.421 592.8 157.42C592.8 157.42 592.8 157.42 592.8 157.42C592.8 157.42 592.8 157.42 592.8 157.42C592.8 157.42 592.8 157.42 591.952 156.89ZM590.212 159.53L589.402 158.943L577.462 175.413L578.272 176L579.082 176.587L591.022 160.117L590.212 159.53ZM578.272 176V175H577.072V176V177H578.272V176ZM601.462 176L600.465 175.92L600.379 177H601.462V176ZM603.142 155V154H602.219L602.145 154.92L603.142 155ZM604.402 155L605.309 154.579L605.041 154H604.402V155ZM610.522 168.2L609.615 168.621L609.617 168.626L610.522 168.2ZM611.542 170.57L610.614 170.941L610.865 171.57H611.542V170.57ZM611.602 170.57V171.57H612.279L612.531 170.941L611.602 170.57ZM612.622 168.2L613.527 168.626L613.529 168.621L612.622 168.2ZM618.742 155V154H618.103L617.835 154.579L618.742 155ZM620.002 155L620.999 154.92L620.925 154H620.002V155ZM621.682 176V177H622.765L622.679 175.92L621.682 176ZM620.392 176L619.395 176.08L619.469 177H620.392V176ZM619.102 159.98L620.099 159.9L620.098 159.892L619.102 159.98ZM619.012 157.19H620.012V156.19H619.012V157.19ZM618.952 157.19V156.19H618.235L618.005 156.869L618.952 157.19ZM617.872 159.98L618.777 160.406L618.777 160.406L617.872 159.98ZM612.232 171.95V172.95H612.866L613.137 172.376L612.232 171.95ZM610.912 171.95L610.007 172.374L610.276 172.95H610.912V171.95ZM605.302 159.98L604.392 160.394L604.397 160.404L605.302 159.98ZM604.192 157.13L605.135 156.796L604.898 156.13H604.192V157.13ZM604.132 157.13V156.13H603.132V157.13H604.132ZM604.042 159.98L603.046 159.892L603.045 159.9L604.042 159.98ZM602.752 176V177H603.675L603.749 176.08L602.752 176ZM601.462 176L602.459 176.08L604.139 155.08L603.142 155L602.145 154.92L600.465 175.92L601.462 176ZM603.142 155V156H604.402V155V154H603.142V155ZM604.402 155L603.495 155.421L609.615 168.621L610.522 168.2L611.429 167.779L605.309 154.579L604.402 155ZM610.522 168.2L609.617 168.626C609.848 169.117 610.097 169.694 610.29 170.154C610.386 170.383 610.467 170.581 610.524 170.721C610.553 170.791 610.575 170.846 610.591 170.884C610.598 170.903 610.604 170.918 610.608 170.927C610.61 170.932 610.611 170.936 610.612 170.938C610.613 170.939 610.613 170.94 610.613 170.941C610.613 170.941 610.614 170.941 610.614 170.941C610.614 170.941 610.614 170.941 610.614 170.941C610.614 170.941 610.614 170.941 610.614 170.941C610.614 170.941 610.614 170.941 611.542 170.57C612.471 170.199 612.471 170.199 612.471 170.199C612.471 170.199 612.471 170.198 612.471 170.198C612.47 170.198 612.47 170.198 612.47 170.198C612.47 170.198 612.47 170.198 612.47 170.197C612.47 170.197 612.469 170.195 612.469 170.194C612.468 170.191 612.466 170.187 612.464 170.182C612.46 170.171 612.453 170.156 612.445 170.136C612.429 170.096 612.406 170.038 612.376 169.965C612.317 169.821 612.233 169.617 612.134 169.381C611.937 168.911 611.676 168.303 611.427 167.774L610.522 168.2ZM611.542 170.57V171.57H611.602V170.57V169.57H611.542V170.57ZM611.602 170.57C612.531 170.941 612.531 170.941 612.531 170.941C612.531 170.941 612.531 170.941 612.531 170.941C612.531 170.941 612.531 170.941 612.531 170.941C612.531 170.941 612.531 170.941 612.531 170.941C612.531 170.94 612.531 170.939 612.532 170.938C612.533 170.936 612.534 170.932 612.536 170.927C612.54 170.918 612.546 170.903 612.554 170.884C612.569 170.846 612.591 170.791 612.62 170.721C612.677 170.581 612.758 170.383 612.854 170.154C613.047 169.694 613.296 169.117 613.527 168.626L612.622 168.2L611.717 167.774C611.468 168.303 611.207 168.911 611.01 169.381C610.911 169.617 610.827 169.821 610.768 169.965C610.738 170.038 610.715 170.096 610.699 170.136C610.691 170.156 610.685 170.171 610.68 170.182C610.678 170.187 610.677 170.191 610.675 170.194C610.675 170.195 610.674 170.197 610.674 170.197C610.674 170.198 610.674 170.198 610.674 170.198C610.674 170.198 610.674 170.198 610.674 170.198C610.674 170.198 610.674 170.199 610.674 170.199C610.674 170.199 610.674 170.199 611.602 170.57ZM612.622 168.2L613.529 168.621L619.649 155.421L618.742 155L617.835 154.579L611.715 167.779L612.622 168.2ZM618.742 155V156H620.002V155V154H618.742V155ZM620.002 155L619.005 155.08L620.685 176.08L621.682 176L622.679 175.92L620.999 154.92L620.002 155ZM621.682 176V175H620.392V176V177H621.682V176ZM620.392 176L621.389 175.92L620.099 159.9L619.102 159.98L618.105 160.06L619.395 176.08L620.392 176ZM619.102 159.98L620.098 159.892C620.056 159.419 620.034 158.751 620.023 158.183C620.018 157.903 620.015 157.654 620.013 157.475C620.013 157.385 620.012 157.314 620.012 157.265C620.012 157.24 620.012 157.221 620.012 157.208C620.012 157.202 620.012 157.197 620.012 157.194C620.012 157.193 620.012 157.192 620.012 157.191C620.012 157.191 620.012 157.19 620.012 157.19C620.012 157.19 620.012 157.19 620.012 157.19C620.012 157.19 620.012 157.19 620.012 157.19C620.012 157.19 620.012 157.19 619.012 157.19C618.012 157.19 618.012 157.19 618.012 157.19C618.012 157.19 618.012 157.19 618.012 157.19C618.012 157.19 618.012 157.19 618.012 157.191C618.012 157.191 618.012 157.191 618.012 157.192C618.012 157.193 618.012 157.194 618.012 157.196C618.012 157.2 618.012 157.205 618.012 157.212C618.012 157.226 618.012 157.246 618.012 157.272C618.012 157.323 618.013 157.398 618.014 157.49C618.015 157.675 618.018 157.932 618.024 158.222C618.035 158.794 618.058 159.521 618.106 160.068L619.102 159.98ZM619.012 157.19V156.19H618.952V157.19V158.19H619.012V157.19ZM618.952 157.19C618.005 156.869 618.005 156.869 618.005 156.869C618.005 156.869 618.005 156.869 618.005 156.869C618.005 156.869 618.005 156.869 618.005 156.869C618.005 156.869 618.005 156.869 618.005 156.87C618.005 156.87 618.004 156.872 618.004 156.873C618.003 156.876 618.001 156.881 617.999 156.887C617.995 156.899 617.988 156.918 617.98 156.943C617.963 156.991 617.938 157.063 617.907 157.152C617.845 157.33 617.757 157.578 617.654 157.857C617.445 158.423 617.188 159.086 616.967 159.554L617.872 159.98L618.777 160.406C619.037 159.854 619.319 159.122 619.53 158.548C619.638 158.257 619.73 157.999 619.795 157.813C619.827 157.72 619.853 157.645 619.871 157.593C619.88 157.567 619.887 157.547 619.892 157.533C619.894 157.526 619.896 157.521 619.897 157.517C619.898 157.515 619.898 157.514 619.899 157.513C619.899 157.512 619.899 157.512 619.899 157.512C619.899 157.511 619.899 157.511 619.899 157.511C619.899 157.511 619.899 157.511 619.899 157.511C619.899 157.511 619.899 157.511 618.952 157.19ZM617.872 159.98L616.967 159.554L611.327 171.524L612.232 171.95L613.137 172.376L618.777 160.406L617.872 159.98ZM612.232 171.95V170.95H610.912V171.95V172.95H612.232V171.95ZM610.912 171.95L611.818 171.526L606.208 159.556L605.302 159.98L604.397 160.404L610.007 172.374L610.912 171.95ZM605.302 159.98L606.212 159.566C606.003 159.105 605.735 158.42 605.514 157.832C605.405 157.542 605.31 157.282 605.242 157.095C605.208 157.001 605.181 156.926 605.163 156.874C605.153 156.849 605.146 156.829 605.142 156.815C605.139 156.809 605.137 156.804 605.136 156.8C605.136 156.799 605.135 156.797 605.135 156.797C605.135 156.796 605.135 156.796 605.135 156.796C605.135 156.796 605.135 156.796 605.135 156.796C605.135 156.796 605.135 156.796 605.135 156.796C605.135 156.796 605.135 156.796 604.192 157.13C603.25 157.464 603.25 157.464 603.25 157.464C603.25 157.464 603.25 157.465 603.25 157.465C603.25 157.465 603.25 157.465 603.25 157.465C603.25 157.465 603.25 157.466 603.25 157.466C603.251 157.467 603.251 157.469 603.252 157.47C603.253 157.474 603.255 157.48 603.258 157.487C603.263 157.501 603.27 157.522 603.28 157.549C603.299 157.603 603.327 157.681 603.362 157.777C603.432 157.97 603.53 158.237 603.642 158.536C603.864 159.125 604.152 159.865 604.392 160.394L605.302 159.98ZM604.192 157.13V156.13H604.132V157.13V158.13H604.192V157.13ZM604.132 157.13C603.132 157.13 603.132 157.13 603.132 157.13C603.132 157.13 603.132 157.13 603.132 157.13C603.132 157.13 603.132 157.13 603.132 157.13C603.132 157.13 603.132 157.131 603.132 157.131C603.132 157.132 603.132 157.133 603.132 157.134C603.132 157.138 603.132 157.143 603.132 157.149C603.132 157.162 603.132 157.182 603.132 157.207C603.132 157.258 603.131 157.332 603.131 157.424C603.129 157.609 603.127 157.866 603.121 158.153C603.11 158.737 603.088 159.419 603.046 159.892L604.042 159.98L605.038 160.068C605.087 159.521 605.109 158.778 605.121 158.192C605.126 157.894 605.129 157.63 605.131 157.439C605.131 157.344 605.132 157.267 605.132 157.214C605.132 157.187 605.132 157.167 605.132 157.152C605.132 157.145 605.132 157.14 605.132 157.136C605.132 157.134 605.132 157.133 605.132 157.132C605.132 157.131 605.132 157.131 605.132 157.131C605.132 157.13 605.132 157.13 605.132 157.13C605.132 157.13 605.132 157.13 605.132 157.13C605.132 157.13 605.132 157.13 604.132 157.13ZM604.042 159.98L603.045 159.9L601.755 175.92L602.752 176L603.749 176.08L605.039 160.06L604.042 159.98ZM602.752 176V175H601.462V176V177H602.752V176ZM628.552 165.35H629.552C629.552 159.872 633.874 155.64 639.172 155.64V154.64V153.64C632.769 153.64 627.552 158.768 627.552 165.35H628.552ZM639.172 154.64V155.64C644.469 155.64 648.792 159.872 648.792 165.35H649.792H650.792C650.792 158.768 645.574 153.64 639.172 153.64V154.64ZM649.792 165.35H648.792C648.792 171.005 644.442 175.36 639.172 175.36V176.36V177.36C645.601 177.36 650.792 172.055 650.792 165.35H649.792ZM639.172 176.36V175.36C633.901 175.36 629.552 171.005 629.552 165.35H628.552H627.552C627.552 172.055 632.742 177.36 639.172 177.36V176.36ZM629.902 165.35H628.902C628.902 171.379 633.447 176.13 639.172 176.13V175.13V174.13C634.637 174.13 630.902 170.361 630.902 165.35H629.902ZM639.172 175.13V176.13C644.897 176.13 649.442 171.379 649.442 165.35H648.442H647.442C647.442 170.361 643.707 174.13 639.172 174.13V175.13ZM648.442 165.35H649.442C649.442 159.44 644.866 154.87 639.172 154.87V155.87V156.87C643.737 156.87 647.442 160.52 647.442 165.35H648.442ZM639.172 155.87V154.87C633.477 154.87 628.902 159.44 628.902 165.35H629.902H630.902C630.902 160.52 634.606 156.87 639.172 156.87V155.87ZM673.977 157.28L674.753 157.911L675.34 157.188L674.661 156.551L673.977 157.28ZM673.197 158.24L672.53 158.985L673.312 159.685L673.973 158.871L673.197 158.24ZM673.707 172.28L674.45 171.611L673.751 170.834L673.005 171.567L673.707 172.28ZM674.517 173.18L675.211 173.899L675.906 173.229L675.26 172.511L674.517 173.18ZM656.067 165.35H657.067C657.067 159.774 660.976 155.64 666.477 155.64V154.64V153.64C659.797 153.64 655.067 158.746 655.067 165.35H656.067ZM666.477 154.64V155.64C668.953 155.64 671.554 156.376 673.292 158.009L673.977 157.28L674.661 156.551C672.439 154.464 669.281 153.64 666.477 153.64V154.64ZM673.977 157.28L673.201 156.649L672.421 157.609L673.197 158.24L673.973 158.871L674.753 157.911L673.977 157.28ZM673.197 158.24L673.864 157.495C671.937 155.771 669.074 154.87 666.507 154.87V155.87V156.87C668.679 156.87 671.037 157.649 672.53 158.985L673.197 158.24ZM666.507 155.87V154.87C660.566 154.87 656.417 159.418 656.417 165.35H657.417H658.417C658.417 160.422 661.768 156.87 666.507 156.87V155.87ZM657.417 165.35H656.417C656.417 171.277 660.503 176.13 666.597 176.13V175.13V174.13C661.771 174.13 658.417 170.343 658.417 165.35H657.417ZM666.597 175.13V176.13C669.419 176.13 672.318 175.05 674.408 172.993L673.707 172.28L673.005 171.567C671.316 173.23 668.934 174.13 666.597 174.13V175.13ZM673.707 172.28L672.963 172.949L673.773 173.849L674.517 173.18L675.26 172.511L674.45 171.611L673.707 172.28ZM674.517 173.18L673.822 172.461C672.228 174 669.946 175.36 666.597 175.36V176.36V177.36C670.567 177.36 673.326 175.72 675.211 173.899L674.517 173.18ZM666.597 176.36V175.36C660.92 175.36 657.067 170.961 657.067 165.35H656.067H655.067C655.067 171.919 659.674 177.36 666.597 177.36V176.36ZM686.899 176H685.899V177H686.899V176ZM686.899 156.2H687.899V155.2H686.899V156.2ZM679.069 156.2H678.069V157.2H679.069V156.2ZM679.069 155V154H678.069V155H679.069ZM696.019 155H697.019V154H696.019V155ZM696.019 156.2V157.2H697.019V156.2H696.019ZM688.189 156.2V155.2H687.189V156.2H688.189ZM688.189 176V177H689.189V176H688.189ZM686.899 176H687.899V156.2H686.899H685.899V176H686.899ZM686.899 156.2V155.2H679.069V156.2V157.2H686.899V156.2ZM679.069 156.2H680.069V155H679.069H678.069V156.2H679.069ZM679.069 155V156H696.019V155V154H679.069V155ZM696.019 155H695.019V156.2H696.019H697.019V155H696.019ZM696.019 156.2V155.2H688.189V156.2V157.2H696.019V156.2ZM688.189 156.2H687.189V176H688.189H689.189V156.2H688.189ZM688.189 176V175H686.899V176V177H688.189V176ZM702.457 176H701.457V177H702.457V176ZM702.457 155V154H701.457V155H702.457ZM703.747 155H704.747V154H703.747V155ZM703.597 174.11L702.601 174.016L702.498 175.11H703.597V174.11ZM703.657 174.11V175.11H704.202L704.498 174.651L703.657 174.11ZM705.487 171.38L704.677 170.794L704.675 170.796L705.487 171.38ZM717.337 155V154H716.826L716.527 154.414L717.337 155ZM718.537 155H719.537V154H718.537V155ZM718.537 176V177H719.537V176H718.537ZM717.247 176H716.247V177H717.247V176ZM717.397 156.89L718.392 156.984L718.496 155.89H717.397V156.89ZM717.337 156.89V155.89H716.783L716.489 156.36L717.337 156.89ZM715.597 159.53L716.407 160.117L716.409 160.114L715.597 159.53ZM703.657 176V177H704.167L704.467 176.587L703.657 176ZM702.457 176H703.457V155H702.457H701.457V176H702.457ZM702.457 155V156H703.747V155V154H702.457V155ZM703.747 155H702.747V171.47H703.747H704.747V155H703.747ZM703.747 171.47H702.747C702.747 171.958 702.712 172.589 702.674 173.113C702.656 173.372 702.638 173.599 702.624 173.76C702.617 173.841 702.611 173.906 702.607 173.95C702.605 173.972 702.604 173.989 702.603 174C702.602 174.006 702.602 174.01 702.602 174.012C702.602 174.014 702.601 174.015 702.601 174.015C702.601 174.016 702.601 174.016 702.601 174.016C702.601 174.016 702.601 174.016 702.601 174.016C702.601 174.016 702.601 174.016 702.601 174.016C702.601 174.016 702.601 174.016 703.597 174.11C704.592 174.204 704.592 174.204 704.592 174.204C704.592 174.204 704.592 174.204 704.592 174.204C704.592 174.204 704.593 174.204 704.593 174.203C704.593 174.203 704.593 174.203 704.593 174.202C704.593 174.201 704.593 174.2 704.593 174.198C704.593 174.195 704.594 174.19 704.594 174.184C704.596 174.171 704.597 174.153 704.599 174.129C704.604 174.082 704.61 174.014 704.617 173.93C704.631 173.761 704.65 173.525 704.669 173.254C704.707 172.721 704.747 172.032 704.747 171.47H703.747ZM703.597 174.11V175.11H703.657V174.11V173.11H703.597V174.11ZM703.657 174.11C704.498 174.651 704.498 174.651 704.498 174.651C704.498 174.651 704.498 174.651 704.498 174.651C704.498 174.651 704.498 174.651 704.498 174.651C704.498 174.651 704.498 174.651 704.498 174.65C704.499 174.65 704.5 174.648 704.501 174.647C704.503 174.644 704.506 174.639 704.51 174.632C704.518 174.619 704.531 174.6 704.547 174.575C704.579 174.526 704.626 174.453 704.684 174.364C704.801 174.184 704.964 173.935 705.148 173.656C705.519 173.094 705.967 172.426 706.299 171.964L705.487 171.38L704.675 170.796C704.317 171.294 703.85 171.991 703.479 172.554C703.291 172.838 703.126 173.091 703.007 173.273C702.948 173.365 702.9 173.438 702.868 173.489C702.851 173.514 702.838 173.534 702.83 173.548C702.825 173.554 702.822 173.56 702.82 173.563C702.819 173.565 702.818 173.566 702.817 173.567C702.817 173.568 702.817 173.568 702.816 173.568C702.816 173.568 702.816 173.568 702.816 173.568C702.816 173.568 702.816 173.568 702.816 173.568C702.816 173.569 702.816 173.569 703.657 174.11ZM705.487 171.38L706.297 171.966L718.147 155.586L717.337 155L716.527 154.414L704.677 170.794L705.487 171.38ZM717.337 155V156H718.537V155V154H717.337V155ZM718.537 155H717.537V176H718.537H719.537V155H718.537ZM718.537 176V175H717.247V176V177H718.537V176ZM717.247 176H718.247V159.53H717.247H716.247V176H717.247ZM717.247 159.53H718.247C718.247 159.042 718.282 158.411 718.319 157.887C718.338 157.628 718.356 157.401 718.37 157.24C718.377 157.159 718.382 157.094 718.386 157.05C718.388 157.028 718.39 157.011 718.391 157C718.391 156.994 718.392 156.99 718.392 156.988C718.392 156.986 718.392 156.985 718.392 156.985C718.392 156.984 718.392 156.984 718.392 156.984C718.392 156.984 718.392 156.984 718.392 156.984C718.392 156.984 718.392 156.984 718.392 156.984C718.392 156.984 718.392 156.984 717.397 156.89C716.401 156.796 716.401 156.796 716.401 156.796C716.401 156.796 716.401 156.796 716.401 156.796C716.401 156.796 716.401 156.796 716.401 156.797C716.401 156.797 716.401 156.797 716.401 156.798C716.401 156.799 716.401 156.8 716.401 156.802C716.4 156.805 716.4 156.81 716.399 156.816C716.398 156.829 716.397 156.847 716.394 156.871C716.39 156.918 716.384 156.986 716.377 157.07C716.363 157.239 716.344 157.475 716.324 157.746C716.287 158.279 716.247 158.968 716.247 159.53H717.247ZM717.397 156.89V155.89H717.337V156.89V157.89H717.397V156.89ZM717.337 156.89C716.489 156.36 716.489 156.36 716.489 156.36C716.489 156.36 716.489 156.36 716.489 156.36C716.489 156.36 716.489 156.36 716.489 156.36C716.489 156.36 716.489 156.361 716.488 156.361C716.488 156.362 716.487 156.363 716.486 156.364C716.484 156.367 716.481 156.372 716.478 156.378C716.47 156.39 716.459 156.408 716.444 156.432C716.414 156.479 716.371 156.547 716.317 156.633C716.209 156.803 716.058 157.041 715.886 157.307C715.538 157.846 715.114 158.488 714.785 158.946L715.597 159.53L716.409 160.114C716.769 159.612 717.216 158.934 717.566 158.393C717.742 158.119 717.897 157.877 718.007 157.702C718.062 157.615 718.106 157.545 718.137 157.496C718.152 157.472 718.164 157.453 718.172 157.44C718.176 157.434 718.179 157.429 718.182 157.425C718.183 157.424 718.183 157.422 718.184 157.421C718.184 157.421 718.184 157.421 718.185 157.42C718.185 157.42 718.185 157.42 718.185 157.42C718.185 157.42 718.185 157.42 718.185 157.42C718.185 157.42 718.185 157.42 717.337 156.89ZM715.597 159.53L714.787 158.943L702.847 175.413L703.657 176L704.467 176.587L716.407 160.117L715.597 159.53ZM703.657 176V175H702.457V176V177H703.657V176Z" fill="black" mask="url(#path-5-outside-2_82_1108)"/>
</svg>
