<svg viewBox="0 0 24 24" fill="none" xmlns="http://www.w3.org/2000/svg">
<path d="M19.2308 24.0044C18.1849 24.0044 16.7156 23.6261 14.5156 22.397C11.8402 20.8966 9.77082 19.5115 7.10994 16.8576C4.54441 14.2936 3.29595 12.6337 1.54863 9.4541C-0.425347 5.86409 -0.0888508 3.98228 0.287298 3.17801C0.735243 2.21674 1.39645 1.6418 2.25109 1.07115C2.73652 0.753104 3.25023 0.480467 3.78569 0.256698C3.83927 0.233657 3.8891 0.211689 3.93358 0.191864C4.19881 0.0723749 4.60068 -0.108198 5.10971 0.0846986C5.44942 0.212225 5.7527 0.473171 6.22744 0.942017C7.20103 1.90221 8.53145 4.04068 9.0223 5.0909C9.3518 5.79872 9.5699 6.26596 9.57041 6.78999C9.57041 7.40354 9.26177 7.87664 8.8873 8.38727C8.81705 8.48322 8.74738 8.57484 8.67988 8.66378C8.27212 9.19961 8.18267 9.35447 8.24158 9.63091C8.36107 10.1866 9.25217 11.8407 10.7166 13.3019C12.181 14.763 13.7874 15.5978 14.3452 15.7168C14.6335 15.7785 14.7915 15.6852 15.3445 15.263C15.4238 15.2024 15.5052 15.1398 15.5904 15.077C16.1616 14.6522 16.6128 14.3515 17.2118 14.3515H17.215C17.7364 14.3515 18.1827 14.5776 18.9221 14.9506C19.8867 15.4371 22.0894 16.7504 23.0555 17.7251C23.5254 18.1987 23.7874 18.5009 23.9155 18.8401C24.1084 19.3508 23.9268 19.751 23.8083 20.0189C23.7885 20.0634 23.7666 20.1122 23.7435 20.1663C23.5179 20.7008 23.2437 21.2134 22.9242 21.6977C22.3547 22.5497 21.7776 23.2092 20.8142 23.6577C20.3195 23.8918 19.778 24.0103 19.2308 24.0044Z" fill="#2A5C8B"/>
</svg>
