<svg fill="none" xmlns="http://www.w3.org/2000/svg"><path d="M50 100c27.614 0 50-22.386 50-50S77.614 0 50 0 0 22.386 0 50s22.386 50 50 50z" fill="#E3EDFE"/><path d="M19.465 16.206l4.06-.828 1.655.267-1.362.908-4.353-.347z" fill="url(#paint0_linear)"/><path d="M53.859 12.067c-.107-.027-.214 0-.32.08-3.899 3.205-8.759 5.608-14.126 6.916-4.673 1.149-9.48 1.442-13.512.802-.134-.027-.24.026-.347.106a.507.507 0 00-.134.348v1.361c.054 10.12.134 21.603 3.712 33.406 4.032 13.191 11.856 24.753 23.953 35.274.08.054.16.107.24.107.08 0 .133 0 .214-.026l.053.16-.053-.16c3.177-1.309 11.375-5.314 18.318-14.393 9.32-12.15 13.325-28.786 11.91-49.428-.027-.24-.188-.48-.428-.534-6.996-1.682-20.134-5.714-29.293-13.912 0-.053-.08-.08-.187-.107zm-.48 78.72a.792.792 0 01-.401-.186c-12.15-10.575-20.027-22.164-24.086-35.435-3.605-11.856-3.685-23.365-3.739-33.512v-1.362a.81.81 0 01.214-.561c.133-.134.32-.187.534-.16 7.584 1.201 19.012-.721 27.45-7.664a.67.67 0 01.508-.133c.133.026.294.08.4.213 9.106 8.171 22.19 12.177 29.16 13.859.374.08.641.454.668.855 1.415 20.721-2.617 37.41-11.963 49.614-6.996 9.132-15.22 13.164-18.425 14.473-.08 0-.187.026-.32 0zm.133-83.66c-.32-.053-3.792.534-4.006.748-7.877 7.584-16.342 9.052-23.525 7.93a24.056 24.056 0 01-1.709-.346c-.08-.027-.133-.027-.213-.054-.588-.08-1.149.054-1.576.427-.454.4-.721 1.015-.748 1.683v.107c.214 21.255-3.418 50.842 28.306 77.839.373.32 3.845-.614 4.165-.721 6.436-2.35 37.545-16.503 33.165-69.722-.106-1.255-.988-2.35-2.11-2.59-5.393-1.175-20.961-5.234-30.254-14.473-.427-.374-.988-.748-1.495-.828z" fill="url(#paint1_linear)"/><path opacity=".3" d="M53.966 12.067a.37.37 0 00-.32.08c-3.9 3.205-8.76 5.608-14.127 6.917-4.673 1.148-9.48 1.442-13.511.8-.134-.026-.24.027-.348.107a.508.508 0 00-.133.348v1.361c.053 10.12.133 21.603 3.712 33.406C33.27 68.277 41.095 79.84 53.19 90.36c.08.053.16.106.24.106.08 0 .134 0 .214-.026l.053.16-.053-.16c3.178-1.309 11.376-5.314 18.318-14.393 9.32-12.15 13.325-28.786 11.91-49.428-.027-.24-.187-.48-.427-.534-6.996-1.682-20.134-5.714-29.293-13.912 0-.053-.08-.08-.187-.107zm-.481 78.72c-.134-.026-.294-.08-.4-.186-12.15-10.575-20.028-22.164-24.087-35.435-3.605-11.856-3.685-23.365-3.738-33.512v-1.362a.81.81 0 01.213-.56c.134-.134.32-.188.535-.161 7.583 1.201 19.012-.721 27.45-7.664a.67.67 0 01.508-.133c.133.026.293.08.4.213 9.106 8.171 22.19 12.177 29.16 13.86.374.08.64.453.667.854 1.416 20.721-2.617 37.41-11.963 49.614-6.996 9.132-15.22 13.164-18.425 14.473-.08 0-.187.026-.32 0zm.133-83.66c-.32-.053-3.791.721-4.005.935-7.877 7.584-16.342 8.865-23.525 7.717a24.07 24.07 0 01-1.71-.347c-.08-.027-.133-.027-.213-.053-.587-.08-4.326.72-4.753 1.094-.454.4 2.483.348 2.457 1.015v.107c.213 21.255-3.686 50.842 28.038 77.84.374.32 4.112-.615 4.432-.722 6.436-2.35 37.545-16.502 33.165-69.721-.106-1.256-.988-2.35-2.109-2.59-5.394-1.176-20.962-5.234-30.254-14.474-.454-.347-1.015-.72-1.523-.8z" fill="url(#paint2_linear)"/><path d="M19.118 16.447c.481-.427 1.122-.561 1.763-.4 6.916 1.788 19.867.133 28.412-8.092.587-.56 1.655-.026 2.323.641 9.32 9.24 24.86 13.298 30.254 14.473 1.122.24 2.003 1.335 2.11 2.59 4.38 53.22-26.73 67.372-33.165 69.722-.694.267-1.522.08-2.19-.48-31.723-26.998-30.067-55.383-30.281-76.638.027-.748.294-1.416.774-1.816z" fill="url(#paint3_linear)"/><path d="M50.494 12.682c-.107-.027-.213 0-.32.08-3.899 3.204-8.759 5.607-14.126 6.916-4.673 1.148-9.48 1.442-13.512.801-.133-.027-.24.027-.347.107a.508.508 0 00-.133.347v1.362c.053 10.12.133 21.602 3.711 33.405C29.8 68.891 37.623 80.454 49.72 90.975c.08.053.16.107.24.107.08 0 .134 0 .214-.027l.053.16-.053-.16c3.178-1.308 11.375-5.314 18.318-14.393 9.32-12.15 13.325-28.786 11.91-49.427-.027-.24-.187-.48-.428-.534-6.996-1.683-20.134-5.715-29.293-13.912 0-.054-.08-.107-.187-.107zm-.48 78.693a.792.792 0 01-.401-.186c-12.15-10.575-20.027-22.164-24.086-35.435-3.605-11.856-3.685-23.365-3.739-33.513V20.88a.81.81 0 01.214-.561c.134-.134.32-.187.534-.16 7.584 1.201 19.013-.721 27.45-7.664a.67.67 0 01.508-.134c.134.027.294.08.4.214 9.107 8.171 22.191 12.177 29.16 13.859.374.08.641.454.668.854C82.137 48.01 78.105 64.7 68.759 76.902c-6.996 9.133-15.22 13.165-18.425 14.473a.639.639 0 01-.32 0zm.133-83.66c-.32-.053-.614 0-.828.214-7.877 7.583-19.52 9.586-26.703 8.438a24.07 24.07 0 01-1.709-.347c-.08-.027-.133-.027-.213-.054-.588-.08-1.148.054-1.576.427-.454.401-.72 1.015-.747 1.683v.107c.213 21.255-1.442 49.64 30.28 76.637.375.32.775.508 1.202.56.32.054.668.028.988-.08 6.436-2.35 37.545-16.502 33.166-69.72-.107-1.256-.989-2.35-2.11-2.59-5.394-1.176-20.962-5.235-30.255-14.474-.427-.347-.988-.721-1.495-.801z" fill="url(#paint4_linear)"/><path d="M50.014 91.081c-.08-.026-.187-.053-.24-.106C37.676 80.454 29.825 68.918 25.82 55.7c-3.605-11.803-3.659-23.285-3.712-33.406v-1.361a.51.51 0 01.133-.348.395.395 0 01.348-.106c4.058.64 8.838.347 13.511-.801 5.341-1.336 10.228-3.712 14.126-6.917.08-.08.187-.106.32-.08.08.027.188.054.241.134 9.16 8.224 22.297 12.257 29.293 13.912.214.053.4.267.427.534 1.416 20.642-2.59 37.25-11.91 49.427-6.942 9.08-15.14 13.085-18.317 14.393l.053.16-.053-.16h-.267zm.507-78.72a.7.7 0 00-.507.133c-8.439 6.943-19.867 8.866-27.451 7.664-.214-.027-.4.027-.534.16a.765.765 0 00-.214.561v1.362c.054 10.147.134 21.656 3.739 33.512 4.032 13.272 11.91 24.86 24.086 35.435.133.107.267.16.4.187.107.027.24 0 .348-.027 3.204-1.308 11.428-5.34 18.425-14.473 9.372-12.203 13.378-28.919 11.962-49.614-.026-.4-.32-.774-.667-.854-6.97-1.656-20.054-5.688-29.16-13.86a1.158 1.158 0 00-.427-.186z" fill="url(#paint5_linear)"/><path d="M13.942 56.332l-2.056 5.588 7.845 2.885 2.055-5.588-7.844-2.885z" fill="#fff" stroke="#426A7C" stroke-width=".15" stroke-miterlimit="10"/><path d="M14.285 63.15l-.534-.535.534.267.64-.8a.742.742 0 01.989-.134.707.707 0 01.187.934l-.48.775-1.336-.508z" fill="#fff" stroke="#426A7C" stroke-width=".15" stroke-miterlimit="10"/><path d="M18.584 52.495c.347-.747.961-1.228 1.335-1.95.48-.907.48-2.135.187-3.15-.267-.855-.694-1.576-.962-2.43-.347-1.148-.347-1.629-.186-2.75.133-1.015.454-2.083 1.201-2.644.935-.721 2.083-.854 3.151-.587a5.611 5.611 0 013.018 1.869c.828 1.014 1.335 2.403 1.335 3.845 0 .988-.267 1.976 0 2.91.187.722.694 1.282 1.282 1.47.64.186 1.308-.08 1.976-.08.667 0 1.308.32 1.815.854.454.48.775 1.148.855 1.869.08.72-.134 1.522-.56 2.003-.295.32-.722.56-.855 1.041-.134.534.24 1.095.64 1.308.401.214.882.24 1.282.428.935.454 1.496 1.789 1.416 3.044-.08 1.255-.695 2.403-1.523 3.124-.827.721-1.815 1.042-2.83 1.122-.988.106-2.003 0-2.99-.054-1.15-.08-2.297-.08-3.392-.56-1.095-.481-2.03-1.362-2.91-2.324-.428-.454-.828-.934-1.015-1.602-.134-.48-.134-.988-.294-1.469-.347-.988-1.255-1.415-1.79-2.243-.56-.827-.64-2.11-.186-3.044z" fill="url(#paint6_linear)"/><path d="M30.948 54.285c.48-.107.88-.561 1.068-1.122.16-.56.08-1.255-.187-1.736-.427-.72-1.202-.908-1.95-1.041l-1.361-.24c-.775-.134-1.55-.32-1.976-1.042-.481-.774-.374-1.816-.294-2.804 0-.106.027-.24.027-.347.107-1.442 0-2.697-.348-3.712-.427-1.255-1.228-2.19-2.136-2.483-.026 0-.026 0-.053.027 0 .027 0 .053.027.053.88.294 1.682 1.202 2.082 2.43.348 1.015.454 2.243.348 3.685 0 .107-.027.24-.027.347-.08 1.015-.187 2.083.294 2.884.454.748 1.255.935 2.029 1.068l1.362.24c.72.134 1.468.294 1.896.989.267.454.347 1.094.187 1.655-.16.534-.561.962-1.015 1.068-.027 0-.027.027-.027.054 0 0 .027.026.054.026z" fill="#BDD0FB"/><path d="M30.52 53.75c.027 0 .027 0 .054-.026.16-.187.347-.428.454-.695.107-.267.16-.64 0-.934a.943.943 0 00-.454-.4 5.726 5.726 0 00-1.282-.482c-.294-.053-.587-.08-.854-.133a5.469 5.469 0 01-1.122-.187c-.427-.133-1.228-.454-1.549-1.335-.267-.694-.16-1.495-.053-2.323.08-.668.187-1.362.053-2.03 0-.053-.053-.08-.08-.053-.027 0-.053.053-.053.107.107.614.026 1.308-.054 1.949-.106.828-.213 1.656.08 2.43.374.934 1.202 1.282 1.656 1.415.374.107.748.134 1.122.187.293.027.587.053.854.107.427.08.855.24 1.255.454.134.08.294.16.374.347.107.187.107.48 0 .748-.107.267-.267.454-.427.64-.027.027-.027.08 0 .134-.027.053 0 .08.026.08z" fill="#BDD0FB"/><path d="M19.892 51.027c.801-.267 3.151-.748 5.421 1.281.374.348.56.882.427 1.362-.56 2.217-2.056 8.785-.614 11.59 0 0-2.403 2.75-5.1.614 0 0-1.282-5.208-2.884-7.477-1.122-1.576 1.629-5.982 2.323-7.05.08-.16.24-.267.427-.32z" fill="#ACD5FF"/><path d="M22.056 46.594s1.255 3.365 1.361 4.86c0 0-1.308.614-2.563-.374 0 0-.187-3.364-.374-3.979l1.576-.507z" fill="#fff" stroke="#426A7C" stroke-width=".15" stroke-miterlimit="10"/><path d="M20.32 42s-3.044 4.433-1.175 5.662c1.896 1.228 4.059-1.896 4.059-1.896s.694-2.403-.08-3.204C22.349 41.76 20.32 42 20.32 42z" fill="#fff" stroke="#426A7C" stroke-width=".15" stroke-miterlimit="10"/><path d="M21.735 40.933s-1.442.374-1.629 1.014c-.187.641 2.056 1.229 2.67 1.229l.535 2.617s1.442-2.484.828-3.899c-.561-1.415-2.404-.961-2.404-.961z" fill="url(#paint7_linear)"/><path d="M22.59 45.446s1.201-1.415 1.682-.508c.507.908-1.068 1.63-1.63 1.175l-.052-.667zm-5.528 31.456c0 .24-.374 2.136-.587 3.124-.08.4-.027.828.187 1.175l8.064 13.084c.107.16.16.32.213.508.16.614.481 2.136.348 3.524l-.4.855 1.761-.427.294-4.727-.507-.293c-.427-.267-.774-.641-.961-1.095-.748-1.71-2.564-6.062-3.071-8.198-.561-2.43-3.285-4.353-3.285-4.353l.454-1.121-2.51-2.056z" fill="#fff" stroke="#426A7C" stroke-width=".15" stroke-miterlimit="10"/><path d="M28.57 97.09s-.96-1.496-1.094-2.084c-.133-.587-.454-1.602-1.015-1.281 0 0-.24 2.857-.106 3.952.106 1.121-1.229 1.094-1.229 1.094s-.374.054-.64.347c-.188.187-.054.508.213.535a6.933 6.933 0 001.87-.134.543.543 0 00.453-.534l.134-3.284 1.228 1.495.187-.107z" fill="#568FE2"/><path d="M21.789 78.931s.454 11.803.534 13.485c.053 1.682-.187 5.394-1.843 6.542l.748.534s.908-.8 1.762-2.296c.988-1.709 1.282-2.003 1.282-2.003l-.347-.667c-.16-.294-.187-.641-.134-.962.348-1.762 1.442-7.637 1.763-8.892.374-1.495.374-3.471-1.015-5.127-1.389-1.682-2.75-.614-2.75-.614z" fill="#fff" stroke="#426A7C" stroke-width=".15" stroke-miterlimit="10"/><path d="M23.684 99.973c.054 0 .107-.027.107-.08.053-.4.267-1.976.454-2.403.214-.481.881-2.457-.053-2.617 0 0-2.27 3.418-2.697 3.898-.428.454-1.015.187-1.015.187s-.427.134-.748.561c-.16.214 0 .48.24.48h1.55c.453 0 .854-.293 1.014-.72.267-.694.721-1.71 1.255-2.163l-.24 2.75c.026.054.08.107.133.107z" fill="#568FE2"/><path d="M19.625 64.591s.374 1.122-.133 2.965l-3.178 11.776a.343.343 0 00.24.427c1.015.347 4.327 1.308 8.813.934a.542.542 0 00.454-.4 703.83 703.83 0 011.415-6.863c.747-3.578 1.549-7.45-2.377-9.693-1.789.801-3.444 1.282-5.234.854z" fill="url(#paint8_linear)"/><path d="M25.634 52.735s3.872 3.098 4.887 7.424c1.014 4.326-5.501 4.886-5.501 4.886s-.908-.96-1.95-.614c-1.04.374-.106-1.735 1.122-1.735 1.228-.027.668.96 2.403.16 1.683-.801 2.697-3.178-1.682-6.73a2.063 2.063 0 01-.587-.774c-.882-2.083-.24-3.471 1.308-2.617z" fill="#fff" stroke="#426A7C" stroke-width=".15" stroke-miterlimit="10"/><path d="M37.437 42.402l2.91-.828L48.76 54.07l16.316-24.994 4.245 4.993-20.56 32.07-2.912.855-8.411-24.593z" fill="url(#paint9_linear)"/><path d="M33.458 47.956L37.41 42.4l8.412 12.497 16.315-24.994 4.246 4.994-20.561 32.097-12.364-19.04z" fill="url(#paint10_linear)"/><path d="M62.164 29.905l2.91-.828 4.246 4.993-2.91.828-4.246-4.993z" fill="url(#paint11_linear)"/><defs><linearGradient id="paint0_linear" x1="19.467" y1="15.96" x2="25.169" y2="15.96" gradientUnits="userSpaceOnUse"><stop stop-color="#FCB148"/><stop offset=".052" stop-color="#FDBA46"/><stop offset=".142" stop-color="#FFC244"/><stop offset=".318" stop-color="#FFC444"/><stop offset=".485" stop-color="#FDB946"/><stop offset=".775" stop-color="#F99C4D"/><stop offset=".866" stop-color="#F8924F"/><stop offset="1" stop-color="#F8924F"/></linearGradient><linearGradient id="paint1_linear" x1="21.714" y1="51.323" x2="87.799" y2="51.323" gradientUnits="userSpaceOnUse"><stop stop-color="#FCB148"/><stop offset=".052" stop-color="#FDBA46"/><stop offset=".142" stop-color="#FFC244"/><stop offset=".318" stop-color="#FFC444"/><stop offset=".485" stop-color="#FDB946"/><stop offset=".775" stop-color="#F99C4D"/><stop offset=".866" stop-color="#F8924F"/><stop offset="1" stop-color="#F8924F"/></linearGradient><linearGradient id="paint2_linear" x1="19.347" y1="51.323" x2="87.906" y2="51.323" gradientUnits="userSpaceOnUse"><stop stop-color="#FCB148"/><stop offset=".052" stop-color="#FDBA46"/><stop offset=".142" stop-color="#FFC244"/><stop offset=".318" stop-color="#FFC444"/><stop offset=".485" stop-color="#FDB946"/><stop offset=".775" stop-color="#F99C4D"/><stop offset=".866" stop-color="#F8924F"/><stop offset="1" stop-color="#F8924F"/></linearGradient><linearGradient id="paint3_linear" x1="18.377" y1="51.585" x2="84.435" y2="51.585" gradientUnits="userSpaceOnUse"><stop stop-color="#FCB148"/><stop offset=".052" stop-color="#FDBA46"/><stop offset=".142" stop-color="#FFC244"/><stop offset=".318" stop-color="#FFC444"/><stop offset=".485" stop-color="#FDB946"/><stop offset=".775" stop-color="#F99C4D"/><stop offset=".866" stop-color="#F8924F"/><stop offset="1" stop-color="#F8924F"/></linearGradient><linearGradient id="paint4_linear" x1="18.377" y1="51.585" x2="84.435" y2="51.585" gradientUnits="userSpaceOnUse"><stop stop-color="#FCB148"/><stop offset=".052" stop-color="#FDBA46"/><stop offset=".142" stop-color="#FFC244"/><stop offset=".318" stop-color="#FFC444"/><stop offset=".485" stop-color="#FDB946"/><stop offset=".775" stop-color="#F99C4D"/><stop offset=".866" stop-color="#F8924F"/><stop offset="1" stop-color="#F8924F"/></linearGradient><linearGradient id="paint5_linear" x1="21.805" y1="51.871" x2="81.029" y2="51.871" gradientUnits="userSpaceOnUse"><stop stop-color="#FFDB44"/><stop offset="1" stop-color="#FEEF06"/></linearGradient><linearGradient id="paint6_linear" x1="17.908" y1="44.082" x2="42.77" y2="71.271" gradientUnits="userSpaceOnUse"><stop stop-color="#0084ED"/><stop offset=".205" stop-color="#237ED3"/><stop offset=".491" stop-color="#3152C9"/><stop offset=".767" stop-color="#3937C3"/><stop offset=".967" stop-color="#3C2DC1"/></linearGradient><linearGradient id="paint7_linear" x1="21.738" y1="41.553" x2="48.619" y2="70.949" gradientUnits="userSpaceOnUse"><stop stop-color="#0084ED"/><stop offset=".205" stop-color="#237ED3"/><stop offset=".491" stop-color="#3152C9"/><stop offset=".767" stop-color="#3937C3"/><stop offset=".967" stop-color="#3C2DC1"/></linearGradient><linearGradient id="paint8_linear" x1="21.352" y1="74.735" x2="28.479" y2="62.985" gradientUnits="userSpaceOnUse"><stop stop-color="#78A9EF"/><stop offset=".708" stop-color="#9FC2FC"/></linearGradient><linearGradient id="paint9_linear" x1="37.438" y1="48.03" x2="69.326" y2="48.03" gradientUnits="userSpaceOnUse"><stop stop-color="#0084ED"/><stop offset=".205" stop-color="#237ED3"/><stop offset=".491" stop-color="#3152C9"/><stop offset=".767" stop-color="#3937C3"/><stop offset=".967" stop-color="#3C2DC1"/></linearGradient><linearGradient id="paint10_linear" x1="33.458" y1="48.451" x2="66.384" y2="48.451" gradientUnits="userSpaceOnUse"><stop stop-color="#56BDE2"/><stop offset=".709" stop-color="#568FE2"/></linearGradient><linearGradient id="paint11_linear" x1="62.159" y1="31.989" x2="69.326" y2="31.989" gradientUnits="userSpaceOnUse"><stop stop-color="#56BDE2"/><stop offset=".709" stop-color="#568FE2"/></linearGradient></defs></svg>