<svg fill="none" xmlns="http://www.w3.org/2000/svg"><path d="M50.5 100c27.614 0 50-22.386 50-50S78.114 0 50.5 0 .5 22.386.5 50s22.386 50 50 50z" fill="#E3EDFE"/><path d="M15.107 51.492c-.24-.026-.454-.026-.694-.026-1.042 0-2.03.133-2.992.4-1.87 5.317-2.859 10.526-2.859 15.388l-2.164-2.163c-.4 2.885-.454 5.503-.187 7.907a12.34 12.34 0 003.393 2.485c.347.16.721.32 1.095.454a10.855 10.855 0 004.996.56c-3.633-6.678-3.687-15.627-.588-25.005z" fill="url(#paint0_linear)"/><path d="M73.533 73.105C86.65 59.988 93.596 44.012 92.982 31.269c-.4 11.781-6.946 25.78-18.62 37.455-18.701 18.7-43.44 24.257-55.3 12.395a19.779 19.779 0 01-3.42-4.595c-.428.054-.855.08-1.283.08a11.29 11.29 0 01-3.713-.64c.962 4.087 2.832 7.586 5.557 10.311 12.209 12.156 37.908 6.252 57.33-13.17z" fill="#B0E5FF"/><path d="M95.012 22.987c3.954 14.266-3.046 34.25-18.888 50.118-20.276 20.277-47.392 26.074-60.536 12.957-2.912-2.912-4.889-6.519-5.984-10.58a11.134 11.134 0 01-3.393-2.484c.748 6.973 3.927 12.048 7.587 15.709 4.835 4.835 11.54 7.32 19.422 7.32 2.965 0 6.09-.348 9.35-1.07 11.594-2.564 23.483-9.456 33.447-19.421 9.965-9.965 16.858-21.853 19.422-33.447 1.55-7.08 1.39-13.598-.427-19.102z" fill="url(#paint1_linear)"/><path d="M64.557 9.87c9.19-1.282 17.044.829 22.147 5.931 3.954 3.954 5.984 9.324 6.278 15.441.24-7.106-1.737-13.384-6.198-17.845C75.75 2.39 53.55 6.424 35.464 22.133l.668.828c9.003-7.16 19.101-11.808 28.425-13.09z" fill="url(#paint2_linear)"/><path d="M15.107 51.492c2.859-8.682 8.442-17.738 16.403-25.7a85.078 85.078 0 013.954-3.686l-.962-1.202c2.458-2.298 4.916-4.408 7.881-6.065 1.55-.854 3.126-1.71 4.702-2.51 1.47-.749 3.099-1.23 4.595-1.951.428-.214.641-.534.668-.882 14.506-5.583 28.425-4.514 36.813 3.847 2.672 2.672 4.649 5.958 5.85 9.671-1.094-4.007-3.071-7.533-5.956-10.419C75.91-.549 48.82 5.25 28.545 25.525 20.397 33.673 14.599 42.89 11.42 51.893c.962-.267 1.95-.4 2.992-.4.214-.027.455 0 .695 0z" fill="#B0E5FF"/><path d="M52.348 9.523c-.053.347-.24.668-.668.882-1.496.721-3.099 1.202-4.595 1.95a158.944 158.944 0 00-4.702 2.511c-2.965 1.657-5.423 3.74-7.88 6.064l.961 1.203C53.55 6.45 75.777 2.39 86.784 13.423c4.461 4.462 6.438 10.74 6.198 17.846.614 12.743-6.332 28.719-19.449 41.836C54.111 92.527 28.411 98.431 16.23 86.25c-2.725-2.725-4.595-6.225-5.556-10.312-.374-.134-.722-.294-1.096-.454 1.096 4.06 3.072 7.667 5.985 10.579 13.143 13.144 40.232 7.347 60.536-12.957 15.841-15.843 22.84-35.853 18.887-50.119-1.176-3.713-3.153-6.972-5.824-9.644-8.389-8.361-22.308-9.43-36.814-3.82z" fill="#B0E5FF"/><path d="M33.755 82.562c16.746 0 30.321-13.575 30.321-30.322 0-16.746-13.575-30.321-30.321-30.321-16.747 0-30.322 13.575-30.322 30.321 0 16.747 13.576 30.322 30.322 30.322z" fill="url(#paint3_linear)"/><path d="M63.195 44.04c4.568 15.948-4.568 32.164-20.383 36.225-15.816 4.06-32.326-5.584-36.894-21.56C1.35 42.758 10.486 26.542 26.302 22.48c15.788-4.034 32.325 5.61 36.893 21.56z" fill="url(#paint4_linear)"/><path d="M23.576 30.227c11.46-5.61 25.7-.08 31.791 12.37 4.462 9.083 3.34 19.315-2.004 26.367 5.53-5.743 7.801-14.319 5.237-22.894-3.847-12.957-17.312-20.945-30.055-17.82-5.236 1.283-9.537 4.222-12.503 8.149 1.95-2.565 4.488-4.675 7.534-6.172z" fill="#FFD551"/><path d="M12.463 57.316c3.874 12.957 17.338 20.945 30.081 17.82 4.328-1.043 8.015-3.233 10.847-6.199 5.37-7.052 6.465-17.311 2.003-26.368C49.276 30.12 35.064 24.59 23.604 30.2a21.396 21.396 0 00-7.561 6.171c-4.301 5.664-5.877 13.305-3.58 20.945z" fill="#fff"/><path d="M37.815 49.275a3.564 3.564 0 01-1.282 4.862c-1.71.989-3.58.24-4.542-1.443-.988-1.71-.72-3.74.989-4.728a3.519 3.519 0 014.835 1.309z" fill="#A1C3FC"/><path d="M24.03 30.761l2.004 3.74M44.28 69.017l1.977 3.74m3.446-29.627l3.714-1.977M14.76 61.697l4.008-2.084" stroke="#A1C3FC" stroke-width="3.488" stroke-miterlimit="10"/><path d="M36.747 28.838l-.187 3.286m-1.736 39.351l-.188 3.26M53.898 50.69l3.259.188m-44.855-2.271l3.26.16m32.752-14.293l-2.084 2.538m-23.723 28.96l-2.083 2.538m34.035-2.325l-2.485-2.11M19.836 37.841l-2.511-2.11" stroke="#A1C3FC" stroke-width="1.744" stroke-miterlimit="10"/><path d="M32.606 48.286l-6.064-9.083-.428-4.14.615-.214 7.907 13.865-2.03-.428z" fill="#A1C3FC"/><path d="M37.016 53.901c1.456-.84 1.836-2.91.847-4.623-.989-1.712-2.97-2.418-4.427-1.577-1.457.841-1.836 2.91-.848 4.623.989 1.712 2.97 2.418 4.428 1.577z" fill="#E3EDFE"/><path d="M35.598 50.05l7.347-4.408 3.045-.268-2.164 2.405-7.934 3.206-.294-.935zm-2.138-.936l-6.304-10.071-.428-4.194 3.366 2.938 4.622 10.9-1.255.428z" fill="#E3EDFE"/><path d="M82.75 67.761l15.04-40.66-16.215 32.646 1.175 8.014z" fill="url(#paint5_linear)"/><path d="M97.79 27.102l-22.84 32.54-13.545-.215L97.79 27.102z" fill="#ACD5FF"/><path d="M97.79 27.101L81.576 59.747l13.57.214 2.646-32.86z" fill="#ACD5FF"/><path d="M81.574 59.747L97.79 27.1 74.95 59.641l7.8 8.12-1.175-8.014z" fill="url(#paint6_linear)"/><path d="M74.362 59.64L97.79 27.101l-22.842 32.54h-.587z" fill="#E3EDFE"/><path d="M81.575 59.747L97.79 27.1 82.109 59.747h-.534z" fill="#E3EDFE"/><defs><linearGradient id="paint0_linear" x1="7.56" y1="73.435" x2="13.609" y2="64.093" gradientUnits="userSpaceOnUse"><stop stop-color="#56BDE2"/><stop offset=".949" stop-color="#495668"/></linearGradient><linearGradient id="paint1_linear" x1="20.221" y1="95.151" x2="95.594" y2="19.778" gradientUnits="userSpaceOnUse"><stop stop-color="#56BDE2"/><stop offset=".709" stop-color="#568FE2"/></linearGradient><linearGradient id="paint2_linear" x1="7.988" y1="82.918" x2="83.361" y2="7.545" gradientUnits="userSpaceOnUse"><stop stop-color="#56BDE2"/><stop offset=".709" stop-color="#568FE2"/></linearGradient><linearGradient id="paint3_linear" x1="6.3" y1="109.605" x2="33.2" y2="53.382" gradientUnits="userSpaceOnUse"><stop stop-color="#FFC444"/><stop offset=".996" stop-color="#F36F56"/></linearGradient><linearGradient id="paint4_linear" x1="46.754" y1="12.831" x2="-24.843" y2="220.138" gradientUnits="userSpaceOnUse"><stop stop-color="#FFC444"/><stop offset=".996" stop-color="#F36F56"/></linearGradient><linearGradient id="paint5_linear" x1="81.575" y1="47.435" x2="97.78" y2="47.435" gradientUnits="userSpaceOnUse"><stop stop-color="#0084ED"/><stop offset=".205" stop-color="#237ED3"/><stop offset=".491" stop-color="#3152C9"/><stop offset=".767" stop-color="#3937C3"/><stop offset=".967" stop-color="#3C2DC1"/></linearGradient><linearGradient id="paint6_linear" x1="103.932" y1="53.936" x2="85.924" y2="34.267" gradientUnits="userSpaceOnUse"><stop stop-color="#0084ED"/><stop offset=".205" stop-color="#237ED3"/><stop offset=".491" stop-color="#3152C9"/><stop offset=".767" stop-color="#3937C3"/><stop offset=".967" stop-color="#3C2DC1"/></linearGradient></defs></svg>