<svg viewBox="0 0 24 24" fill="none" xmlns="http://www.w3.org/2000/svg">
<path d="M12 0C5.3725 0 0 5.3725 0 12C0 18.6275 5.3725 24 12 24C18.6275 24 24 18.6275 24 12C24 5.3725 18.6275 0 12 0ZM16.615 13.5388C16.615 13.5388 17.6763 14.5863 17.9375 15.0725C17.945 15.0833 17.9496 15.0917 17.9513 15.0975C18.0571 15.275 18.0833 15.4154 18.03 15.5187C17.9425 15.6912 17.6425 15.7763 17.54 15.7838H15.665C15.535 15.7838 15.2625 15.75 14.9325 15.5225C14.6788 15.345 14.4288 15.0537 14.185 14.77C13.8213 14.3475 13.5063 13.9825 13.1888 13.9825C13.1484 13.9823 13.1083 13.9887 13.07 14.0013C12.83 14.0788 12.5225 14.4213 12.5225 15.3338C12.5225 15.6188 12.2975 15.7825 12.1388 15.7825H11.28C10.9875 15.7825 9.46375 15.68 8.11375 14.2563C6.46125 12.5125 4.97375 9.015 4.96125 8.9825C4.8675 8.75625 5.06125 8.635 5.2725 8.635H7.16625C7.41875 8.635 7.50125 8.78875 7.55875 8.925C7.62625 9.08375 7.87375 9.715 8.28 10.425C8.93875 11.5825 9.3425 12.0525 9.66625 12.0525C9.72696 12.0518 9.78658 12.0363 9.84 12.0075C10.2625 11.7725 10.1837 10.2662 10.165 9.95375C10.165 9.895 10.1637 9.28 9.9475 8.985C9.7925 8.77125 9.52875 8.69 9.36875 8.66C9.43351 8.57064 9.51883 8.49818 9.6175 8.44875C9.9075 8.30375 10.43 8.2825 10.9488 8.2825H11.2375C11.8 8.29 11.945 8.32625 12.1488 8.3775C12.5613 8.47625 12.57 8.7425 12.5338 9.65375C12.5225 9.9125 12.5113 10.205 12.5113 10.55L12.5075 10.79C12.495 11.2537 12.48 11.78 12.8075 11.9963C12.8497 12.0241 12.8994 12.0385 12.95 12.0375C13.0638 12.0375 13.4063 12.0375 14.3338 10.4463C14.6187 9.93353 14.8673 9.40138 15.0775 8.85375C15.0963 8.82125 15.1513 8.72125 15.2163 8.6825C15.2647 8.65946 15.3176 8.6471 15.3712 8.64625H17.5975C17.84 8.64625 18.0063 8.6825 18.0375 8.77625C18.0925 8.925 18.0275 9.37875 17.0113 10.755L16.5575 11.3538C15.6363 12.5613 15.6363 12.6225 16.615 13.5388Z" fill="white"/>
</svg>
