<svg viewBox="0 0 24 24" fill="none" xmlns="http://www.w3.org/2000/svg">
<path d="M12 0C18.6276 0 24 5.3724 24 12C24 18.6276 18.6276 24 12 24C9.87932 24.0036 7.79591 23.4424 5.96401 22.374L0.00481854 24L1.62722 18.0384C0.557968 16.2059 -0.00369795 14.1216 1.83224e-05 12C1.83224e-05 5.3724 5.37242 0 12 0ZM7.91041 6.36L7.67041 6.3696C7.51524 6.38029 7.36363 6.42104 7.22401 6.4896C7.0939 6.56341 6.97509 6.65555 6.87121 6.7632C6.72721 6.89879 6.64561 7.01639 6.55801 7.13039C6.11416 7.70748 5.87518 8.41597 5.87881 9.14399C5.88121 9.73199 6.03481 10.3044 6.27481 10.8396C6.76561 11.922 7.57321 13.068 8.63881 14.13C8.89561 14.3856 9.14761 14.6424 9.41881 14.8812C10.7429 16.0469 12.3207 16.8876 14.0268 17.3364L14.7084 17.4408C14.9304 17.4528 15.1524 17.436 15.3756 17.4252C15.725 17.4068 16.0662 17.3122 16.3752 17.148C16.5322 17.0668 16.6856 16.9787 16.8348 16.884C16.8348 16.884 16.8856 16.8496 16.9848 16.776C17.1468 16.656 17.2464 16.5708 17.3808 16.4304C17.4816 16.3264 17.5656 16.2056 17.6328 16.068C17.7264 15.8724 17.82 15.4992 17.8584 15.1884C17.8872 14.9508 17.8788 14.8212 17.8752 14.7408C17.8704 14.6124 17.7636 14.4792 17.6472 14.4228L16.9488 14.1096C16.9488 14.1096 15.9048 13.6548 15.2664 13.3644C15.1996 13.3353 15.128 13.3186 15.0552 13.3152C14.9731 13.3066 14.8901 13.3158 14.8118 13.3421C14.7336 13.3684 14.6619 13.4112 14.6016 13.4676C14.5956 13.4652 14.5152 13.5336 13.6476 14.5848C13.5978 14.6517 13.5292 14.7023 13.4506 14.7301C13.3719 14.7578 13.2868 14.7616 13.206 14.7408C13.1278 14.7199 13.0512 14.6935 12.9768 14.6616C12.828 14.5992 12.7764 14.5752 12.6744 14.532C11.9855 14.2319 11.3477 13.8258 10.7844 13.3284C10.6332 13.1964 10.4928 13.0524 10.3488 12.9132C9.87675 12.461 9.46531 11.9496 9.12481 11.3916L9.05401 11.2776C9.00393 11.2005 8.96286 11.118 8.93161 11.0316C8.88601 10.8552 9.00481 10.7136 9.00481 10.7136C9.00481 10.7136 9.29641 10.3944 9.43201 10.2216C9.56401 10.0536 9.67561 9.89039 9.74761 9.77399C9.88921 9.54599 9.93361 9.31199 9.85921 9.13079C9.52321 8.30999 9.17601 7.49359 8.81761 6.68159C8.74681 6.52079 8.53681 6.40559 8.34601 6.38279C8.28121 6.37479 8.21641 6.3684 8.15161 6.3636C7.99049 6.35435 7.82892 6.35596 7.66801 6.3684L7.91041 6.36Z" fill="white"/>
</svg>
